%TF.GenerationSoftware,KiCad,Pcbnew,9.0.1-9.0.1-0~ubuntu22.04.1*%
%TF.CreationDate,2025-10-31T16:35:43+00:00*%
%TF.ProjectId,DeMoN_2.0_PLCC,44654d6f-4e5f-4322-9e30-5f504c43432e,rev?*%
%TF.SameCoordinates,Original*%
%TF.FileFunction,Copper,L1,Top*%
%TF.FilePolarity,Positive*%
%FSLAX46Y46*%
G04 Gerber Fmt 4.6, Leading zero omitted, Abs format (unit mm)*
G04 Created by KiCad (PCBNEW 9.0.1-9.0.1-0~ubuntu22.04.1) date 2025-10-31 16:35:43*
%MOMM*%
%LPD*%
G01*
G04 APERTURE LIST*
G04 Aperture macros list*
%AMRoundRect*
0 Rectangle with rounded corners*
0 $1 Rounding radius*
0 $2 $3 $4 $5 $6 $7 $8 $9 X,Y pos of 4 corners*
0 Add a 4 corners polygon primitive as box body*
4,1,4,$2,$3,$4,$5,$6,$7,$8,$9,$2,$3,0*
0 Add four circle primitives for the rounded corners*
1,1,$1+$1,$2,$3*
1,1,$1+$1,$4,$5*
1,1,$1+$1,$6,$7*
1,1,$1+$1,$8,$9*
0 Add four rect primitives between the rounded corners*
20,1,$1+$1,$2,$3,$4,$5,0*
20,1,$1+$1,$4,$5,$6,$7,0*
20,1,$1+$1,$6,$7,$8,$9,0*
20,1,$1+$1,$8,$9,$2,$3,0*%
G04 Aperture macros list end*
%TA.AperFunction,SMDPad,CuDef*%
%ADD10RoundRect,0.250000X0.412500X0.650000X-0.412500X0.650000X-0.412500X-0.650000X0.412500X-0.650000X0*%
%TD*%
%TA.AperFunction,ComponentPad*%
%ADD11R,1.500000X1.500000*%
%TD*%
%TA.AperFunction,ComponentPad*%
%ADD12C,1.600000*%
%TD*%
%TA.AperFunction,ComponentPad*%
%ADD13R,1.600000X1.600000*%
%TD*%
%TA.AperFunction,ComponentPad*%
%ADD14R,1.800000X1.800000*%
%TD*%
%TA.AperFunction,ComponentPad*%
%ADD15C,1.800000*%
%TD*%
%TA.AperFunction,SMDPad,CuDef*%
%ADD16RoundRect,0.250000X-0.412500X-0.650000X0.412500X-0.650000X0.412500X0.650000X-0.412500X0.650000X0*%
%TD*%
%TA.AperFunction,ComponentPad*%
%ADD17R,1.700000X1.700000*%
%TD*%
%TA.AperFunction,ComponentPad*%
%ADD18O,1.700000X1.700000*%
%TD*%
%TA.AperFunction,SMDPad,CuDef*%
%ADD19RoundRect,0.250000X-0.400000X-0.625000X0.400000X-0.625000X0.400000X0.625000X-0.400000X0.625000X0*%
%TD*%
%TA.AperFunction,SMDPad,CuDef*%
%ADD20R,0.700000X1.925000*%
%TD*%
%TA.AperFunction,SMDPad,CuDef*%
%ADD21R,1.925000X0.700000*%
%TD*%
%TA.AperFunction,SMDPad,CuDef*%
%ADD22R,1.981000X0.457000*%
%TD*%
%TA.AperFunction,SMDPad,CuDef*%
%ADD23RoundRect,0.250000X-0.625000X0.400000X-0.625000X-0.400000X0.625000X-0.400000X0.625000X0.400000X0*%
%TD*%
%TA.AperFunction,SMDPad,CuDef*%
%ADD24RoundRect,0.250000X-0.650000X0.412500X-0.650000X-0.412500X0.650000X-0.412500X0.650000X0.412500X0*%
%TD*%
%TA.AperFunction,ComponentPad*%
%ADD25C,1.635000*%
%TD*%
%TA.AperFunction,SMDPad,CuDef*%
%ADD26RoundRect,0.150000X-0.150000X-0.587500X0.150000X-0.587500X0.150000X0.587500X-0.150000X0.587500X0*%
%TD*%
%TA.AperFunction,SMDPad,CuDef*%
%ADD27RoundRect,0.150000X-0.587500X-0.150000X0.587500X-0.150000X0.587500X0.150000X-0.587500X0.150000X0*%
%TD*%
%TA.AperFunction,SMDPad,CuDef*%
%ADD28R,1.200000X0.400000*%
%TD*%
%TA.AperFunction,ComponentPad*%
%ADD29C,4.575000*%
%TD*%
%TA.AperFunction,SMDPad,CuDef*%
%ADD30RoundRect,0.150000X-0.825000X-0.150000X0.825000X-0.150000X0.825000X0.150000X-0.825000X0.150000X0*%
%TD*%
%TA.AperFunction,SMDPad,CuDef*%
%ADD31RoundRect,0.250001X0.624999X-0.462499X0.624999X0.462499X-0.624999X0.462499X-0.624999X-0.462499X0*%
%TD*%
%TA.AperFunction,SMDPad,CuDef*%
%ADD32R,1.150000X0.300000*%
%TD*%
%TA.AperFunction,ComponentPad*%
%ADD33C,0.325000*%
%TD*%
%TA.AperFunction,SMDPad,CuDef*%
%ADD34R,2.000000X2.180000*%
%TD*%
%TA.AperFunction,SMDPad,CuDef*%
%ADD35RoundRect,0.250000X0.400000X0.625000X-0.400000X0.625000X-0.400000X-0.625000X0.400000X-0.625000X0*%
%TD*%
%TA.AperFunction,ViaPad*%
%ADD36C,0.600000*%
%TD*%
%TA.AperFunction,Conductor*%
%ADD37C,0.200000*%
%TD*%
%TA.AperFunction,Conductor*%
%ADD38C,0.400000*%
%TD*%
G04 APERTURE END LIST*
D10*
%TO.P,C17,1*%
%TO.N,GND*%
X165023400Y-74402200D03*
%TO.P,C17,2*%
%TO.N,+5V*%
X161898400Y-74402200D03*
%TD*%
D11*
%TO.P,SW2,1,B*%
%TO.N,Net-(D2-K)*%
X188500000Y-101690000D03*
D12*
%TO.P,SW2,2,C*%
%TO.N,GND*%
X188500000Y-104230000D03*
%TO.P,SW2,3,A*%
%TO.N,Net-(D2-K)*%
X188500000Y-99150000D03*
%TD*%
D13*
%TO.P,C1,1*%
%TO.N,Net-(U2-DIS)*%
X94000000Y-126944888D03*
D12*
%TO.P,C1,2*%
%TO.N,GND*%
X94000000Y-129444888D03*
%TD*%
D14*
%TO.P,D3,1,K*%
%TO.N,GND*%
X94450000Y-99225000D03*
D15*
%TO.P,D3,2,A*%
%TO.N,Net-(D3-A)*%
X94450000Y-101765000D03*
%TD*%
D16*
%TO.P,C6,1*%
%TO.N,GND*%
X112665900Y-99722200D03*
%TO.P,C6,2*%
%TO.N,+5V*%
X115790900Y-99722200D03*
%TD*%
%TO.P,C4,1*%
%TO.N,GND*%
X179935900Y-74402200D03*
%TO.P,C4,2*%
%TO.N,/DN*%
X183060900Y-74402200D03*
%TD*%
D17*
%TO.P,JP2,1,A*%
%TO.N,Net-(JP2-A)*%
X89128400Y-81342200D03*
D18*
%TO.P,JP2,2,C*%
%TO.N,Net-(JP2-C)*%
X91668400Y-81342200D03*
%TO.P,JP2,3,B*%
%TO.N,+5V*%
X94208400Y-81342200D03*
%TD*%
D16*
%TO.P,C5,1*%
%TO.N,GND*%
X179935900Y-80402200D03*
%TO.P,C5,2*%
%TO.N,/DP*%
X183060900Y-80402200D03*
%TD*%
D14*
%TO.P,SW1,1,1*%
%TO.N,Net-(U1-I{slash}O_22)*%
X91677500Y-115377500D03*
D15*
%TO.P,SW1,2,2*%
%TO.N,GND*%
X96677500Y-115377500D03*
%TO.P,SW1,3,3*%
%TO.N,Net-(U1-I{slash}O_22)*%
X91677500Y-120377500D03*
%TO.P,SW1,4,4*%
%TO.N,GND*%
X96677500Y-120377500D03*
%TD*%
D19*
%TO.P,R10,1*%
%TO.N,GND*%
X179948400Y-83902200D03*
%TO.P,R10,2*%
%TO.N,Net-(J1-PadA5)*%
X183048400Y-83902200D03*
%TD*%
D20*
%TO.P,U1,1,I/GCLR*%
%TO.N,unconnected-(U1-I{slash}GCLR-Pad1)*%
X141498400Y-62689700D03*
%TO.P,U1,2,GCLK2/OE2/I*%
%TO.N,unconnected-(U1-GCLK2{slash}OE2{slash}I-Pad2)*%
X140228400Y-62689700D03*
%TO.P,U1,3,VCCINT_1*%
%TO.N,+5V*%
X138958400Y-62689700D03*
%TO.P,U1,4,I/O_1*%
%TO.N,/A1*%
X137688400Y-62689700D03*
%TO.P,U1,5,I/O_2*%
%TO.N,/A2*%
X136418400Y-62689700D03*
%TO.P,U1,6,I/O_3*%
%TO.N,/A3*%
X135148400Y-62689700D03*
%TO.P,U1,7,GND_1*%
%TO.N,GND*%
X133878400Y-62689700D03*
%TO.P,U1,8,I/O_4*%
%TO.N,/A4*%
X132608400Y-62689700D03*
%TO.P,U1,9,I/O_5*%
%TO.N,/A5*%
X131338400Y-62689700D03*
%TO.P,U1,10,I/O_6*%
%TO.N,/A6*%
X130068400Y-62689700D03*
%TO.P,U1,11,I/O_7*%
%TO.N,/A7*%
X128798400Y-62689700D03*
D21*
%TO.P,U1,12,I/O_8*%
%TO.N,/A8*%
X127285900Y-64202200D03*
%TO.P,U1,13,VCCIO_1*%
%TO.N,+5V*%
X127285900Y-65472200D03*
%TO.P,U1,14,I/O/TDI*%
%TO.N,/A9*%
X127285900Y-66742200D03*
%TO.P,U1,15,I/O_9*%
%TO.N,/A10*%
X127285900Y-68012200D03*
%TO.P,U1,16,I/O_10*%
%TO.N,/A11*%
X127285900Y-69282200D03*
%TO.P,U1,17,I/O_11*%
%TO.N,/A12*%
X127285900Y-70552200D03*
%TO.P,U1,18,I/O_12*%
%TO.N,/A13*%
X127285900Y-71822200D03*
%TO.P,U1,19,GND_2*%
%TO.N,GND*%
X127285900Y-73092200D03*
%TO.P,U1,20,I/O/PD1*%
%TO.N,/A14*%
X127285900Y-74362200D03*
%TO.P,U1,21,I/O_13*%
%TO.N,/A15*%
X127285900Y-75632200D03*
%TO.P,U1,22,I/O_14*%
%TO.N,/A16*%
X127285900Y-76902200D03*
%TO.P,U1,23,I/O/TMS*%
%TO.N,/A17*%
X127285900Y-78172200D03*
%TO.P,U1,24,I/O_15*%
%TO.N,/A18*%
X127285900Y-79442200D03*
%TO.P,U1,25,I/O_16*%
%TO.N,/A19*%
X127285900Y-80712200D03*
%TO.P,U1,26,VCCIO_2*%
%TO.N,+5V*%
X127285900Y-81982200D03*
%TO.P,U1,27,I/O_17*%
%TO.N,/~{FC0}*%
X127285900Y-83252200D03*
%TO.P,U1,28,I/O_18*%
%TO.N,/~{FC1}*%
X127285900Y-84522200D03*
%TO.P,U1,29,I/O_19*%
%TO.N,Net-(JP1-C)*%
X127285900Y-85792200D03*
%TO.P,U1,30,I/O_20*%
%TO.N,Net-(JP2-C)*%
X127285900Y-87062200D03*
%TO.P,U1,31,I/O_21*%
%TO.N,Net-(D1-A)*%
X127285900Y-88332200D03*
%TO.P,U1,32,GND_3*%
%TO.N,GND*%
X127285900Y-89602200D03*
D20*
%TO.P,U1,33,I/O_22*%
%TO.N,Net-(U1-I{slash}O_22)*%
X128798400Y-91114700D03*
%TO.P,U1,34,I/O_23*%
%TO.N,Net-(U1-I{slash}O_23)*%
X130068400Y-91114700D03*
%TO.P,U1,35,I/O_24*%
%TO.N,/~{LDS}*%
X131338400Y-91114700D03*
%TO.P,U1,36,I/O_25*%
%TO.N,/~{UDS}*%
X132608400Y-91114700D03*
%TO.P,U1,37,I/O_26*%
%TO.N,/~{AS}*%
X133878400Y-91114700D03*
%TO.P,U1,38,VCCIO_3*%
%TO.N,+5V*%
X135148400Y-91114700D03*
%TO.P,U1,39,I/O_27*%
%TO.N,/~{OE}*%
X136418400Y-91114700D03*
%TO.P,U1,40,I/O_28*%
%TO.N,/D0*%
X137688400Y-91114700D03*
%TO.P,U1,41,I/O_29*%
%TO.N,/D1*%
X138958400Y-91114700D03*
%TO.P,U1,42,GND_4*%
%TO.N,GND*%
X140228400Y-91114700D03*
%TO.P,U1,43,VCCINT_2*%
%TO.N,+5V*%
X141498400Y-91114700D03*
%TO.P,U1,44,I/O_30*%
%TO.N,/R_W*%
X142768400Y-91114700D03*
%TO.P,U1,45,I/O_31*%
%TO.N,/~{RST}*%
X144038400Y-91114700D03*
%TO.P,U1,46,I/O/PD2*%
%TO.N,/~{IPL0}*%
X145308400Y-91114700D03*
%TO.P,U1,47,GND_5*%
%TO.N,GND*%
X146578400Y-91114700D03*
%TO.P,U1,48,I/O_32*%
%TO.N,/~{IPL1}*%
X147848400Y-91114700D03*
%TO.P,U1,49,I/O_33*%
%TO.N,/~{IPL2}*%
X149118400Y-91114700D03*
%TO.P,U1,50,I/O_34*%
%TO.N,/~{HLT}*%
X150388400Y-91114700D03*
%TO.P,U1,51,I/O_35*%
%TO.N,Net-(U1-I{slash}O_35)*%
X151658400Y-91114700D03*
%TO.P,U1,52,I/O_36*%
%TO.N,Net-(U1-I{slash}O_36)*%
X152928400Y-91114700D03*
%TO.P,U1,53,VCCIO_4*%
%TO.N,+5V*%
X154198400Y-91114700D03*
D21*
%TO.P,U1,54,I/O_37*%
%TO.N,Net-(U1-I{slash}O_37)*%
X155710900Y-89602200D03*
%TO.P,U1,55,I/O_38*%
%TO.N,Net-(D2-K)*%
X155710900Y-88332200D03*
%TO.P,U1,56,I/O_39*%
%TO.N,unconnected-(U1-I{slash}O_39-Pad56)*%
X155710900Y-87062200D03*
%TO.P,U1,57,I/O_40*%
%TO.N,unconnected-(U1-I{slash}O_40-Pad57)*%
X155710900Y-85792200D03*
%TO.P,U1,58,I/O_41*%
%TO.N,/~{OVR}*%
X155710900Y-84522200D03*
%TO.P,U1,59,GND_6*%
%TO.N,GND*%
X155710900Y-83252200D03*
%TO.P,U1,60,I/O_42*%
%TO.N,/~{DTACK}*%
X155710900Y-81982200D03*
%TO.P,U1,61,I/O_43*%
%TO.N,/FT_WR*%
X155710900Y-80712200D03*
%TO.P,U1,62,I/O/TCK*%
%TO.N,/FT_RD*%
X155710900Y-79442200D03*
%TO.P,U1,63,I/O_44*%
%TO.N,/FT_TXE*%
X155710900Y-78172200D03*
%TO.P,U1,64,I/O_45*%
%TO.N,/FT_RXF*%
X155710900Y-76902200D03*
%TO.P,U1,65,I/O_46*%
%TO.N,/FT_SIWU*%
X155710900Y-75632200D03*
%TO.P,U1,66,VCCIO_5*%
%TO.N,+5V*%
X155710900Y-74362200D03*
%TO.P,U1,67,I/O_47*%
%TO.N,unconnected-(U1-I{slash}O_47-Pad67)*%
X155710900Y-73092200D03*
%TO.P,U1,68,I/O_48*%
%TO.N,unconnected-(U1-I{slash}O_48-Pad68)*%
X155710900Y-71822200D03*
%TO.P,U1,69,I/O_49*%
%TO.N,unconnected-(U1-I{slash}O_49-Pad69)*%
X155710900Y-70552200D03*
%TO.P,U1,70,I/O_50*%
%TO.N,unconnected-(U1-I{slash}O_50-Pad70)*%
X155710900Y-69282200D03*
%TO.P,U1,71,I/O/TDO*%
%TO.N,unconnected-(U1-I{slash}O{slash}TDO-Pad71)*%
X155710900Y-68012200D03*
%TO.P,U1,72,GND_7*%
%TO.N,GND*%
X155710900Y-66742200D03*
%TO.P,U1,73,I/O_51*%
%TO.N,unconnected-(U1-I{slash}O_51-Pad73)*%
X155710900Y-65472200D03*
%TO.P,U1,74,I/O_52*%
%TO.N,unconnected-(U1-I{slash}O_52-Pad74)*%
X155710900Y-64202200D03*
D20*
%TO.P,U1,75,I/O_53*%
%TO.N,unconnected-(U1-I{slash}O_53-Pad75)*%
X154198400Y-62689700D03*
%TO.P,U1,76,I/O_54*%
%TO.N,unconnected-(U1-I{slash}O_54-Pad76)*%
X152928400Y-62689700D03*
%TO.P,U1,77,1/O*%
%TO.N,/A23*%
X151658400Y-62689700D03*
%TO.P,U1,78,VCCIO_6*%
%TO.N,+5V*%
X150388400Y-62689700D03*
%TO.P,U1,79,I/O_55*%
%TO.N,/A22*%
X149118400Y-62689700D03*
%TO.P,U1,80,I/O_56*%
%TO.N,/A21*%
X147848400Y-62689700D03*
%TO.P,U1,81,GCLK3/I/O*%
%TO.N,/A20*%
X146578400Y-62689700D03*
%TO.P,U1,82,GND_8*%
%TO.N,GND*%
X145308400Y-62689700D03*
%TO.P,U1,83,GCLK1/I*%
%TO.N,unconnected-(U1-GCLK1{slash}I-Pad83)*%
X144038400Y-62689700D03*
%TO.P,U1,84,I/OE1*%
%TO.N,unconnected-(U1-I{slash}OE1-Pad84)*%
X142768400Y-62689700D03*
%TD*%
D19*
%TO.P,R8,1*%
%TO.N,Net-(U7-USBDP)*%
X179948400Y-77402200D03*
%TO.P,R8,2*%
%TO.N,/DP*%
X183048400Y-77402200D03*
%TD*%
D22*
%TO.P,U4,1,A17*%
%TO.N,/A18*%
X144944400Y-102475000D03*
%TO.P,U4,2,A16*%
%TO.N,/A17*%
X144944400Y-103745000D03*
%TO.P,U4,3,A14*%
%TO.N,/A15*%
X144944400Y-105015000D03*
%TO.P,U4,4,A12*%
%TO.N,/A13*%
X144944400Y-106285000D03*
%TO.P,U4,5,A7*%
%TO.N,/A8*%
X144944400Y-107555000D03*
%TO.P,U4,6,A6*%
%TO.N,/A7*%
X144944400Y-108825000D03*
%TO.P,U4,7,A5*%
%TO.N,/A6*%
X144944400Y-110095000D03*
%TO.P,U4,8,A4*%
%TO.N,/A5*%
X144944400Y-111365000D03*
%TO.P,U4,9,A3*%
%TO.N,/A4*%
X144944400Y-112635000D03*
%TO.P,U4,10,A2*%
%TO.N,/A3*%
X144944400Y-113905000D03*
%TO.P,U4,11,A1*%
%TO.N,/A2*%
X144944400Y-115175000D03*
%TO.P,U4,12,A0*%
%TO.N,/A1*%
X144944400Y-116445000D03*
%TO.P,U4,13,I/O0*%
%TO.N,/D0*%
X144944400Y-117715000D03*
%TO.P,U4,14,I/O1*%
%TO.N,/D1*%
X144944400Y-118985000D03*
%TO.P,U4,15,I/O2*%
%TO.N,/D2*%
X144944400Y-120255000D03*
%TO.P,U4,16,GND*%
%TO.N,GND*%
X144944400Y-121525000D03*
%TO.P,U4,17,I/O3*%
%TO.N,/D3*%
X158172400Y-121525000D03*
%TO.P,U4,18,I/O4*%
%TO.N,/D4*%
X158172400Y-120255000D03*
%TO.P,U4,19,I/O5*%
%TO.N,/D5*%
X158172400Y-118985000D03*
%TO.P,U4,20,I/O6*%
%TO.N,/D6*%
X158172400Y-117715000D03*
%TO.P,U4,21,I/O7*%
%TO.N,/D7*%
X158172400Y-116445000D03*
%TO.P,U4,22,~{CE}*%
%TO.N,Net-(U1-I{slash}O_37)*%
X158172400Y-115175000D03*
%TO.P,U4,23,A10*%
%TO.N,/A11*%
X158172400Y-113905000D03*
%TO.P,U4,24,~{OE}*%
%TO.N,/~{OE}*%
X158172400Y-112635000D03*
%TO.P,U4,25,A11*%
%TO.N,/A12*%
X158172400Y-111365000D03*
%TO.P,U4,26,A9*%
%TO.N,/A10*%
X158172400Y-110095000D03*
%TO.P,U4,27,A8*%
%TO.N,/A9*%
X158172400Y-108825000D03*
%TO.P,U4,28,A13*%
%TO.N,/A14*%
X158172400Y-107555000D03*
%TO.P,U4,29,~{WE}*%
%TO.N,/R_W*%
X158172400Y-106285000D03*
%TO.P,U4,30,A18*%
%TO.N,/A19*%
X158172400Y-105015000D03*
%TO.P,U4,31,A15*%
%TO.N,/A16*%
X158172400Y-103745000D03*
%TO.P,U4,32,VDD*%
%TO.N,+5V*%
X158172400Y-102475000D03*
%TD*%
D23*
%TO.P,R5,1*%
%TO.N,Net-(D2-A)*%
X183300000Y-89750000D03*
%TO.P,R5,2*%
%TO.N,+5V*%
X183300000Y-92850000D03*
%TD*%
D24*
%TO.P,C12,1*%
%TO.N,+5V*%
X102400000Y-111587500D03*
%TO.P,C12,2*%
%TO.N,GND*%
X102400000Y-114712500D03*
%TD*%
D25*
%TO.P,CN1,1,1*%
%TO.N,GND*%
X88060000Y-44200000D03*
%TO.P,CN1,2,2*%
X88060000Y-39120000D03*
%TO.P,CN1,3,3*%
X90600000Y-44200000D03*
%TO.P,CN1,4,4*%
X90600000Y-39120000D03*
%TO.P,CN1,5,5*%
%TO.N,unconnected-(CN1-Pad5)*%
X93140000Y-44200000D03*
%TO.P,CN1,6,6*%
%TO.N,+5V*%
X93140000Y-39120000D03*
%TO.P,CN1,7,7*%
%TO.N,unconnected-(CN1-Pad7)*%
X95680000Y-44200000D03*
%TO.P,CN1,8,8*%
%TO.N,unconnected-(CN1-Pad8)*%
X95680000Y-39120000D03*
%TO.P,CN1,9,9*%
%TO.N,unconnected-(CN1-Pad9)*%
X98220000Y-44200000D03*
%TO.P,CN1,10,10*%
%TO.N,unconnected-(CN1-Pad10)*%
X98220000Y-39120000D03*
%TO.P,CN1,11,11*%
%TO.N,unconnected-(CN1-Pad11)*%
X100760000Y-44200000D03*
%TO.P,CN1,12,12*%
%TO.N,unconnected-(CN1-Pad12)*%
X100760000Y-39120000D03*
%TO.P,CN1,13,13*%
%TO.N,unconnected-(CN1-Pad13)*%
X103300000Y-44200000D03*
%TO.P,CN1,14,14*%
%TO.N,unconnected-(CN1-Pad14)*%
X103300000Y-39120000D03*
%TO.P,CN1,15,15*%
%TO.N,unconnected-(CN1-Pad15)*%
X105840000Y-44200000D03*
%TO.P,CN1,16,16*%
%TO.N,unconnected-(CN1-Pad16)*%
X105840000Y-39120000D03*
%TO.P,CN1,17,17*%
%TO.N,/~{OVR}*%
X108380000Y-44200000D03*
%TO.P,CN1,18,18*%
%TO.N,unconnected-(CN1-Pad18)*%
X108380000Y-39120000D03*
%TO.P,CN1,19,19*%
%TO.N,unconnected-(CN1-Pad19)*%
X110920000Y-44200000D03*
%TO.P,CN1,20,20*%
%TO.N,unconnected-(CN1-Pad20)*%
X110920000Y-39120000D03*
%TO.P,CN1,21,21*%
%TO.N,/A5*%
X113460000Y-44200000D03*
%TO.P,CN1,22,22*%
%TO.N,unconnected-(CN1-Pad22)*%
X113460000Y-39120000D03*
%TO.P,CN1,23,23*%
%TO.N,/A6*%
X116000000Y-44200000D03*
%TO.P,CN1,24,24*%
%TO.N,/A4*%
X116000000Y-39120000D03*
%TO.P,CN1,25,25*%
%TO.N,unconnected-(CN1-Pad25)*%
X118540000Y-44200000D03*
%TO.P,CN1,26,26*%
%TO.N,/A3*%
X118540000Y-39120000D03*
%TO.P,CN1,27,27*%
%TO.N,/A2*%
X121080000Y-44200000D03*
%TO.P,CN1,28,28*%
%TO.N,/A7*%
X121080000Y-39120000D03*
%TO.P,CN1,29,29*%
%TO.N,/A1*%
X123620000Y-44200000D03*
%TO.P,CN1,30,30*%
%TO.N,/A8*%
X123620000Y-39120000D03*
%TO.P,CN1,31,31*%
%TO.N,/~{FC0}*%
X126160000Y-44200000D03*
%TO.P,CN1,32,32*%
%TO.N,/A9*%
X126160000Y-39120000D03*
%TO.P,CN1,33,33*%
%TO.N,/~{FC1}*%
X128700000Y-44200000D03*
%TO.P,CN1,34,34*%
%TO.N,/A10*%
X128700000Y-39120000D03*
%TO.P,CN1,35,35*%
%TO.N,unconnected-(CN1-Pad35)*%
X131240000Y-44200000D03*
%TO.P,CN1,36,36*%
%TO.N,/A11*%
X131240000Y-39120000D03*
%TO.P,CN1,37,37*%
%TO.N,unconnected-(CN1-Pad37)*%
X133780000Y-44200000D03*
%TO.P,CN1,38,38*%
%TO.N,/A12*%
X133780000Y-39120000D03*
%TO.P,CN1,39,39*%
%TO.N,/A13*%
X136320000Y-44200000D03*
%TO.P,CN1,40,40*%
%TO.N,/~{IPL0}*%
X136320000Y-39120000D03*
%TO.P,CN1,41,41*%
%TO.N,/A14*%
X138860000Y-44200000D03*
%TO.P,CN1,42,42*%
%TO.N,/~{IPL1}*%
X138860000Y-39120000D03*
%TO.P,CN1,43,43*%
%TO.N,/A15*%
X141400000Y-44200000D03*
%TO.P,CN1,44,44*%
%TO.N,/~{IPL2}*%
X141400000Y-39120000D03*
%TO.P,CN1,45,45*%
%TO.N,/A16*%
X143940000Y-44200000D03*
%TO.P,CN1,46,46*%
%TO.N,unconnected-(CN1-Pad46)*%
X143940000Y-39120000D03*
%TO.P,CN1,47,47*%
%TO.N,/A17*%
X146480000Y-44200000D03*
%TO.P,CN1,48,48*%
%TO.N,unconnected-(CN1-Pad48)*%
X146480000Y-39120000D03*
%TO.P,CN1,49,49*%
%TO.N,unconnected-(CN1-Pad49)*%
X149020000Y-44200000D03*
%TO.P,CN1,50,50*%
%TO.N,unconnected-(CN1-Pad50)*%
X149020000Y-39120000D03*
%TO.P,CN1,51,51*%
%TO.N,unconnected-(CN1-Pad51)*%
X151560000Y-44200000D03*
%TO.P,CN1,52,52*%
%TO.N,/A18*%
X151560000Y-39120000D03*
%TO.P,CN1,53,53*%
%TO.N,/~{RST}*%
X154100000Y-44200000D03*
%TO.P,CN1,54,54*%
%TO.N,/A19*%
X154100000Y-39120000D03*
%TO.P,CN1,55,55*%
%TO.N,/~{HLT}*%
X156640000Y-44200000D03*
%TO.P,CN1,56,56*%
%TO.N,/A20*%
X156640000Y-39120000D03*
%TO.P,CN1,57,57*%
%TO.N,/A22*%
X159180000Y-44200000D03*
%TO.P,CN1,58,58*%
%TO.N,/A21*%
X159180000Y-39120000D03*
%TO.P,CN1,59,59*%
%TO.N,/A23*%
X161720000Y-44200000D03*
%TO.P,CN1,60,60*%
%TO.N,unconnected-(CN1-Pad60)*%
X161720000Y-39120000D03*
%TO.P,CN1,61,61*%
%TO.N,unconnected-(CN1-Pad61)*%
X164260000Y-44200000D03*
%TO.P,CN1,62,62*%
%TO.N,unconnected-(CN1-Pad62)*%
X164260000Y-39120000D03*
%TO.P,CN1,63,63*%
%TO.N,/D15*%
X166800000Y-44200000D03*
%TO.P,CN1,64,64*%
%TO.N,unconnected-(CN1-Pad64)*%
X166800000Y-39120000D03*
%TO.P,CN1,65,65*%
%TO.N,/D14*%
X169340000Y-44200000D03*
%TO.P,CN1,66,66*%
%TO.N,/~{DTACK}*%
X169340000Y-39120000D03*
%TO.P,CN1,67,67*%
%TO.N,/D13*%
X171880000Y-44200000D03*
%TO.P,CN1,68,68*%
%TO.N,/R_W*%
X171880000Y-39120000D03*
%TO.P,CN1,69,69*%
%TO.N,/D12*%
X174420000Y-44200000D03*
%TO.P,CN1,70,70*%
%TO.N,/~{LDS}*%
X174420000Y-39120000D03*
%TO.P,CN1,71,71*%
%TO.N,/D11*%
X176960000Y-44200000D03*
%TO.P,CN1,72,72*%
%TO.N,/~{UDS}*%
X176960000Y-39120000D03*
%TO.P,CN1,73,73*%
%TO.N,GND*%
X179500000Y-44200000D03*
%TO.P,CN1,74,74*%
%TO.N,/~{AS}*%
X179500000Y-39120000D03*
%TO.P,CN1,75,75*%
%TO.N,/D0*%
X182040000Y-44200000D03*
%TO.P,CN1,76,76*%
%TO.N,/D10*%
X182040000Y-39120000D03*
%TO.P,CN1,77,77*%
%TO.N,/D1*%
X184580000Y-44200000D03*
%TO.P,CN1,78,78*%
%TO.N,/D9*%
X184580000Y-39120000D03*
%TO.P,CN1,79,79*%
%TO.N,/D2*%
X187120000Y-44200000D03*
%TO.P,CN1,80,80*%
%TO.N,/D8*%
X187120000Y-39120000D03*
%TO.P,CN1,81,81*%
%TO.N,/D3*%
X189660000Y-44200000D03*
%TO.P,CN1,82,82*%
%TO.N,/D7*%
X189660000Y-39120000D03*
%TO.P,CN1,83,83*%
%TO.N,/D4*%
X192200000Y-44200000D03*
%TO.P,CN1,84,84*%
%TO.N,/D6*%
X192200000Y-39120000D03*
%TO.P,CN1,85,85*%
%TO.N,unconnected-(CN1-Pad85)*%
X194740000Y-44200000D03*
%TO.P,CN1,86,86*%
%TO.N,/D5*%
X194740000Y-39120000D03*
%TD*%
D19*
%TO.P,R12,1*%
%TO.N,GND*%
X179948400Y-67902200D03*
%TO.P,R12,2*%
%TO.N,Net-(J1-PadB5)*%
X183048400Y-67902200D03*
%TD*%
D10*
%TO.P,C9,1*%
%TO.N,+5V*%
X172670900Y-100000000D03*
%TO.P,C9,2*%
%TO.N,GND*%
X169545900Y-100000000D03*
%TD*%
D16*
%TO.P,C15,1*%
%TO.N,GND*%
X118335900Y-65502200D03*
%TO.P,C15,2*%
%TO.N,+5V*%
X121460900Y-65502200D03*
%TD*%
D23*
%TO.P,R11,1*%
%TO.N,/~{HLT}*%
X154050000Y-51700000D03*
%TO.P,R11,2*%
%TO.N,+5V*%
X154050000Y-54800000D03*
%TD*%
D10*
%TO.P,C3,1*%
%TO.N,GND*%
X174060900Y-67902200D03*
%TO.P,C3,2*%
%TO.N,Net-(U7-3V3OUT)*%
X170935900Y-67902200D03*
%TD*%
D19*
%TO.P,R7,1*%
%TO.N,Net-(U7-USBDM)*%
X179948400Y-71402200D03*
%TO.P,R7,2*%
%TO.N,/DN*%
X183048400Y-71402200D03*
%TD*%
D26*
%TO.P,U3,1,NC_1*%
%TO.N,unconnected-(U3-NC_1-Pad1)*%
X171108400Y-104679700D03*
%TO.P,U3,2,A16*%
%TO.N,/A17*%
X169838400Y-104679700D03*
%TO.P,U3,3,A15*%
%TO.N,/A16*%
X168568400Y-104679700D03*
%TO.P,U3,4,A12*%
%TO.N,/A13*%
X167298400Y-104679700D03*
D27*
%TO.P,U3,5,A7*%
%TO.N,/A8*%
X165545900Y-106437200D03*
%TO.P,U3,6,A6*%
%TO.N,/A7*%
X165545900Y-107707200D03*
%TO.P,U3,7,A5*%
%TO.N,/A6*%
X165545900Y-108977200D03*
%TO.P,U3,8,A4*%
%TO.N,/A5*%
X165545900Y-110247200D03*
%TO.P,U3,9,A3*%
%TO.N,/A4*%
X165545900Y-111517200D03*
%TO.P,U3,10,A2*%
%TO.N,/A3*%
X165545900Y-112787200D03*
%TO.P,U3,11,A1*%
%TO.N,/A2*%
X165545900Y-114057200D03*
%TO.P,U3,12,A0*%
%TO.N,/A1*%
X165545900Y-115327200D03*
%TO.P,U3,13,I/O0*%
%TO.N,/D8*%
X165545900Y-116597200D03*
D26*
%TO.P,U3,14,I/O1*%
%TO.N,/D9*%
X167298400Y-118354700D03*
%TO.P,U3,15,I/O2*%
%TO.N,/D10*%
X168568400Y-118354700D03*
%TO.P,U3,16,GND*%
%TO.N,GND*%
X169838400Y-118354700D03*
%TO.P,U3,17,I/O3*%
%TO.N,/D11*%
X171108400Y-118354700D03*
%TO.P,U3,18,I/O4*%
%TO.N,/D12*%
X172378400Y-118354700D03*
%TO.P,U3,19,I/O5*%
%TO.N,/D13*%
X173648400Y-118354700D03*
%TO.P,U3,20,I/O6*%
%TO.N,/D14*%
X174918400Y-118354700D03*
D27*
%TO.P,U3,21,I/O7*%
%TO.N,/D15*%
X176670900Y-116597200D03*
%TO.P,U3,22,~{CE}*%
%TO.N,Net-(U1-I{slash}O_36)*%
X176670900Y-115327200D03*
%TO.P,U3,23,A10*%
%TO.N,/A11*%
X176670900Y-114057200D03*
%TO.P,U3,24,~{OE}*%
%TO.N,/~{OE}*%
X176670900Y-112787200D03*
%TO.P,U3,25,A11*%
%TO.N,/A12*%
X176670900Y-111517200D03*
%TO.P,U3,26,A9*%
%TO.N,/A10*%
X176670900Y-110247200D03*
%TO.P,U3,27,A8*%
%TO.N,/A9*%
X176670900Y-108977200D03*
%TO.P,U3,28,A13*%
%TO.N,/A14*%
X176670900Y-107707200D03*
%TO.P,U3,29,A14*%
%TO.N,/A15*%
X176670900Y-106437200D03*
D26*
%TO.P,U3,30,NC_2*%
%TO.N,unconnected-(U3-NC_2-Pad30)*%
X174918400Y-104679700D03*
%TO.P,U3,31,~{WE}*%
%TO.N,/R_W*%
X173648400Y-104679700D03*
%TO.P,U3,32,VCC*%
%TO.N,+5V*%
X172378400Y-104679700D03*
%TD*%
D23*
%TO.P,R4,1*%
%TO.N,+5V*%
X91950000Y-92300000D03*
%TO.P,R4,2*%
%TO.N,Net-(U1-I{slash}O_22)*%
X91950000Y-95400000D03*
%TD*%
D28*
%TO.P,U7,1,DATA4*%
%TO.N,/D4*%
X169898400Y-73409700D03*
%TO.P,U7,2,DATA2*%
%TO.N,/D2*%
X169898400Y-74044700D03*
%TO.P,U7,3,VCCIO*%
%TO.N,Net-(U7-3V3OUT)*%
X169898400Y-74679700D03*
%TO.P,U7,4,DATA1*%
%TO.N,/D1*%
X169898400Y-75314700D03*
%TO.P,U7,5,DATA7*%
%TO.N,/D7*%
X169898400Y-75949700D03*
%TO.P,U7,6,GND*%
%TO.N,GND*%
X169898400Y-76584700D03*
%TO.P,U7,7,DATA5*%
%TO.N,/D5*%
X169898400Y-77219700D03*
%TO.P,U7,8,DATA6*%
%TO.N,/D6*%
X169898400Y-77854700D03*
%TO.P,U7,9,DATA3*%
%TO.N,/D3*%
X169898400Y-78489700D03*
%TO.P,U7,10,~{SI/WU}*%
%TO.N,/FT_SIWU*%
X169898400Y-79124700D03*
%TO.P,U7,11,~{RD}*%
%TO.N,/FT_RD*%
X169898400Y-79759700D03*
%TO.P,U7,12,~{WR}*%
%TO.N,/FT_WR*%
X169898400Y-80394700D03*
%TO.P,U7,13,USBDP*%
%TO.N,Net-(U7-USBDP)*%
X175098400Y-80394700D03*
%TO.P,U7,14,USBDM*%
%TO.N,Net-(U7-USBDM)*%
X175098400Y-79759700D03*
%TO.P,U7,15,3V3OUT*%
%TO.N,Net-(U7-3V3OUT)*%
X175098400Y-79124700D03*
%TO.P,U7,16,~{RESET}*%
%TO.N,+5V*%
X175098400Y-78489700D03*
%TO.P,U7,17,VCORE*%
%TO.N,unconnected-(U7-VCORE-Pad17)*%
X175098400Y-77854700D03*
%TO.P,U7,18,VCC*%
%TO.N,+5V*%
X175098400Y-77219700D03*
%TO.P,U7,19,GND*%
%TO.N,GND*%
X175098400Y-76584700D03*
%TO.P,U7,20,~{TXE}*%
%TO.N,/FT_TXE*%
X175098400Y-75949700D03*
%TO.P,U7,21,~{RXF}*%
%TO.N,/FT_RXF*%
X175098400Y-75314700D03*
%TO.P,U7,22,CBUS6*%
%TO.N,unconnected-(U7-CBUS6-Pad22)*%
X175098400Y-74679700D03*
%TO.P,U7,23,CBUS5*%
%TO.N,unconnected-(U7-CBUS5-Pad23)*%
X175098400Y-74044700D03*
%TO.P,U7,24,DATA0*%
%TO.N,/D0*%
X175098400Y-73409700D03*
%TD*%
D13*
%TO.P,C2,1*%
%TO.N,Net-(D1-K)*%
X89950000Y-87650000D03*
D12*
%TO.P,C2,2*%
%TO.N,GND*%
X87450000Y-87650000D03*
%TD*%
D10*
%TO.P,C7,1*%
%TO.N,+5V*%
X134560900Y-100000000D03*
%TO.P,C7,2*%
%TO.N,GND*%
X131435900Y-100000000D03*
%TD*%
%TO.P,C13,1*%
%TO.N,GND*%
X143060900Y-55152200D03*
%TO.P,C13,2*%
%TO.N,+5V*%
X139935900Y-55152200D03*
%TD*%
D22*
%TO.P,U6,1,A17*%
%TO.N,/A18*%
X107594400Y-102475000D03*
%TO.P,U6,2,A16*%
%TO.N,/A17*%
X107594400Y-103745000D03*
%TO.P,U6,3,A14*%
%TO.N,/A15*%
X107594400Y-105015000D03*
%TO.P,U6,4,A12*%
%TO.N,/A13*%
X107594400Y-106285000D03*
%TO.P,U6,5,A7*%
%TO.N,/A8*%
X107594400Y-107555000D03*
%TO.P,U6,6,A6*%
%TO.N,/A7*%
X107594400Y-108825000D03*
%TO.P,U6,7,A5*%
%TO.N,/A6*%
X107594400Y-110095000D03*
%TO.P,U6,8,A4*%
%TO.N,/A5*%
X107594400Y-111365000D03*
%TO.P,U6,9,A3*%
%TO.N,/A4*%
X107594400Y-112635000D03*
%TO.P,U6,10,A2*%
%TO.N,/A3*%
X107594400Y-113905000D03*
%TO.P,U6,11,A1*%
%TO.N,/A2*%
X107594400Y-115175000D03*
%TO.P,U6,12,A0*%
%TO.N,/A1*%
X107594400Y-116445000D03*
%TO.P,U6,13,I/O0*%
%TO.N,/D8*%
X107594400Y-117715000D03*
%TO.P,U6,14,I/O1*%
%TO.N,/D9*%
X107594400Y-118985000D03*
%TO.P,U6,15,I/O2*%
%TO.N,/D10*%
X107594400Y-120255000D03*
%TO.P,U6,16,GND*%
%TO.N,GND*%
X107594400Y-121525000D03*
%TO.P,U6,17,I/O3*%
%TO.N,/D11*%
X120822400Y-121525000D03*
%TO.P,U6,18,I/O4*%
%TO.N,/D12*%
X120822400Y-120255000D03*
%TO.P,U6,19,I/O5*%
%TO.N,/D13*%
X120822400Y-118985000D03*
%TO.P,U6,20,I/O6*%
%TO.N,/D14*%
X120822400Y-117715000D03*
%TO.P,U6,21,I/O7*%
%TO.N,/D15*%
X120822400Y-116445000D03*
%TO.P,U6,22,~{CE}*%
%TO.N,Net-(U1-I{slash}O_23)*%
X120822400Y-115175000D03*
%TO.P,U6,23,A10*%
%TO.N,/A11*%
X120822400Y-113905000D03*
%TO.P,U6,24,~{OE}*%
%TO.N,/~{OE}*%
X120822400Y-112635000D03*
%TO.P,U6,25,A11*%
%TO.N,/A12*%
X120822400Y-111365000D03*
%TO.P,U6,26,A9*%
%TO.N,/A10*%
X120822400Y-110095000D03*
%TO.P,U6,27,A8*%
%TO.N,/A9*%
X120822400Y-108825000D03*
%TO.P,U6,28,A13*%
%TO.N,/A14*%
X120822400Y-107555000D03*
%TO.P,U6,29,~{WE}*%
%TO.N,/R_W*%
X120822400Y-106285000D03*
%TO.P,U6,30,A18*%
%TO.N,/A19*%
X120822400Y-105015000D03*
%TO.P,U6,31,A15*%
%TO.N,/A16*%
X120822400Y-103745000D03*
%TO.P,U6,32,VDD*%
%TO.N,+5V*%
X120822400Y-102475000D03*
%TD*%
D14*
%TO.P,D2,1,K*%
%TO.N,Net-(D2-K)*%
X188850000Y-92700000D03*
D15*
%TO.P,D2,2,A*%
%TO.N,Net-(D2-A)*%
X188850000Y-90160000D03*
%TD*%
D24*
%TO.P,C11,1*%
%TO.N,+5V*%
X183200000Y-106137500D03*
%TO.P,C11,2*%
%TO.N,GND*%
X183200000Y-109262500D03*
%TD*%
D15*
%TO.P,VR1,1,CCW*%
%TO.N,+5V*%
X185958400Y-126442200D03*
%TO.P,VR1,2,WIPER*%
X188458400Y-126442200D03*
%TO.P,VR1,3,CW*%
%TO.N,Net-(U2-DIS)*%
X190958400Y-126442200D03*
D29*
%TO.P,VR1,MH1,MH1*%
%TO.N,GND*%
X184058400Y-119442200D03*
%TO.P,VR1,MH2,MH2*%
X192858400Y-119442200D03*
%TD*%
D26*
%TO.P,U5,1,NC_1*%
%TO.N,unconnected-(U5-NC_1-Pad1)*%
X132933400Y-104629700D03*
%TO.P,U5,2,A16*%
%TO.N,/A17*%
X131663400Y-104629700D03*
%TO.P,U5,3,A15*%
%TO.N,/A16*%
X130393400Y-104629700D03*
%TO.P,U5,4,A12*%
%TO.N,/A13*%
X129123400Y-104629700D03*
D27*
%TO.P,U5,5,A7*%
%TO.N,/A8*%
X127370900Y-106387200D03*
%TO.P,U5,6,A6*%
%TO.N,/A7*%
X127370900Y-107657200D03*
%TO.P,U5,7,A5*%
%TO.N,/A6*%
X127370900Y-108927200D03*
%TO.P,U5,8,A4*%
%TO.N,/A5*%
X127370900Y-110197200D03*
%TO.P,U5,9,A3*%
%TO.N,/A4*%
X127370900Y-111467200D03*
%TO.P,U5,10,A2*%
%TO.N,/A3*%
X127370900Y-112737200D03*
%TO.P,U5,11,A1*%
%TO.N,/A2*%
X127370900Y-114007200D03*
%TO.P,U5,12,A0*%
%TO.N,/A1*%
X127370900Y-115277200D03*
%TO.P,U5,13,I/O0*%
%TO.N,/D0*%
X127370900Y-116547200D03*
D26*
%TO.P,U5,14,I/O1*%
%TO.N,/D1*%
X129123400Y-118304700D03*
%TO.P,U5,15,I/O2*%
%TO.N,/D2*%
X130393400Y-118304700D03*
%TO.P,U5,16,GND*%
%TO.N,GND*%
X131663400Y-118304700D03*
%TO.P,U5,17,I/O3*%
%TO.N,/D3*%
X132933400Y-118304700D03*
%TO.P,U5,18,I/O4*%
%TO.N,/D4*%
X134203400Y-118304700D03*
%TO.P,U5,19,I/O5*%
%TO.N,/D5*%
X135473400Y-118304700D03*
%TO.P,U5,20,I/O6*%
%TO.N,/D6*%
X136743400Y-118304700D03*
D27*
%TO.P,U5,21,I/O7*%
%TO.N,/D7*%
X138495900Y-116547200D03*
%TO.P,U5,22,~{CE}*%
%TO.N,Net-(U1-I{slash}O_35)*%
X138495900Y-115277200D03*
%TO.P,U5,23,A10*%
%TO.N,/A11*%
X138495900Y-114007200D03*
%TO.P,U5,24,~{OE}*%
%TO.N,/~{OE}*%
X138495900Y-112737200D03*
%TO.P,U5,25,A11*%
%TO.N,/A12*%
X138495900Y-111467200D03*
%TO.P,U5,26,A9*%
%TO.N,/A10*%
X138495900Y-110197200D03*
%TO.P,U5,27,A8*%
%TO.N,/A9*%
X138495900Y-108927200D03*
%TO.P,U5,28,A13*%
%TO.N,/A14*%
X138495900Y-107657200D03*
%TO.P,U5,29,A14*%
%TO.N,/A15*%
X138495900Y-106387200D03*
D26*
%TO.P,U5,30,NC_2*%
%TO.N,unconnected-(U5-NC_2-Pad30)*%
X136743400Y-104629700D03*
%TO.P,U5,31,~{WE}*%
%TO.N,/R_W*%
X135473400Y-104629700D03*
%TO.P,U5,32,VCC*%
%TO.N,+5V*%
X134203400Y-104629700D03*
%TD*%
D30*
%TO.P,U2,1,GND*%
%TO.N,GND*%
X91525000Y-104645000D03*
%TO.P,U2,2,TR*%
%TO.N,Net-(D1-K)*%
X91525000Y-105915000D03*
%TO.P,U2,3,Q*%
%TO.N,Net-(D1-A)*%
X91525000Y-107185000D03*
%TO.P,U2,4,R*%
%TO.N,+5V*%
X91525000Y-108455000D03*
%TO.P,U2,5,CV*%
%TO.N,unconnected-(U2-CV-Pad5)*%
X96475000Y-108455000D03*
%TO.P,U2,6,THR*%
%TO.N,Net-(U2-DIS)*%
X96475000Y-107185000D03*
%TO.P,U2,7,DIS*%
X96475000Y-105915000D03*
%TO.P,U2,8,VCC*%
%TO.N,+5V*%
X96475000Y-104645000D03*
%TD*%
D23*
%TO.P,R9,1*%
%TO.N,Net-(D3-A)*%
X88100000Y-92300000D03*
%TO.P,R9,2*%
%TO.N,+5V*%
X88100000Y-95400000D03*
%TD*%
D31*
%TO.P,D1,1,K*%
%TO.N,Net-(D1-K)*%
X99700000Y-95337500D03*
%TO.P,D1,2,A*%
%TO.N,Net-(D1-A)*%
X99700000Y-92362500D03*
%TD*%
D10*
%TO.P,C16,1*%
%TO.N,GND*%
X165023400Y-91102200D03*
%TO.P,C16,2*%
%TO.N,+5V*%
X161898400Y-91102200D03*
%TD*%
D23*
%TO.P,R6,1*%
%TO.N,Net-(D2-K)*%
X183200000Y-99100000D03*
%TO.P,R6,2*%
%TO.N,+5V*%
X183200000Y-102200000D03*
%TD*%
D17*
%TO.P,JP1,1,A*%
%TO.N,Net-(JP1-A)*%
X89168400Y-77692200D03*
D18*
%TO.P,JP1,2,C*%
%TO.N,Net-(JP1-C)*%
X91708400Y-77692200D03*
%TO.P,JP1,3,B*%
%TO.N,+5V*%
X94248400Y-77692200D03*
%TD*%
D10*
%TO.P,C8,1*%
%TO.N,+5V*%
X153050900Y-99722200D03*
%TO.P,C8,2*%
%TO.N,GND*%
X149925900Y-99722200D03*
%TD*%
D16*
%TO.P,C14,1*%
%TO.N,GND*%
X118235900Y-81972200D03*
%TO.P,C14,2*%
%TO.N,+5V*%
X121360900Y-81972200D03*
%TD*%
D23*
%TO.P,R13,1*%
%TO.N,/~{RST}*%
X150150000Y-51700000D03*
%TO.P,R13,2*%
%TO.N,+5V*%
X150150000Y-54800000D03*
%TD*%
D10*
%TO.P,C10,1*%
%TO.N,+5V*%
X90712500Y-48600000D03*
%TO.P,C10,2*%
%TO.N,GND*%
X87587500Y-48600000D03*
%TD*%
D32*
%TO.P,J1,A1,A1*%
%TO.N,GND*%
X202322000Y-86237200D03*
X202322000Y-85937200D03*
%TO.P,J1,A4,A4*%
%TO.N,unconnected-(J1-PadA4)*%
X202322000Y-85437200D03*
X202322000Y-85137200D03*
%TO.P,J1,A5,A5*%
%TO.N,Net-(J1-PadA5)*%
X202322000Y-84137200D03*
%TO.P,J1,A6,A6*%
%TO.N,/DP*%
X202322000Y-83137200D03*
%TO.P,J1,A7,A7*%
%TO.N,/DN*%
X202322000Y-82637200D03*
%TO.P,J1,A8,A8*%
%TO.N,unconnected-(J1-PadA8)*%
X202322000Y-81637200D03*
%TO.P,J1,A9,A9*%
%TO.N,unconnected-(J1-PadA9)_1*%
X202322000Y-80637200D03*
X202322000Y-80337200D03*
%TO.P,J1,A12,A12*%
%TO.N,GND*%
X202322000Y-79837200D03*
X202322000Y-79537200D03*
%TO.P,J1,B5,B5*%
%TO.N,Net-(J1-PadB5)*%
X202322000Y-81137200D03*
%TO.P,J1,B6,B6*%
%TO.N,/DP*%
X202322000Y-82137200D03*
%TO.P,J1,B7,B7*%
%TO.N,/DN*%
X202322000Y-83637200D03*
%TO.P,J1,B8,B8*%
%TO.N,unconnected-(J1-PadB8)*%
X202322000Y-84637200D03*
D33*
%TO.P,J1,MH1*%
%TO.N,N/C*%
X203397000Y-85777200D03*
%TO.P,J1,MH2*%
X203397000Y-79997200D03*
D34*
%TO.P,J1,MP1,MP1*%
%TO.N,GND*%
X206500000Y-87997200D03*
%TO.P,J1,MP2,MP2*%
X206500000Y-77777200D03*
%TO.P,J1,MP3,MP3*%
X202897000Y-87997200D03*
%TO.P,J1,MP4,MP4*%
X202897000Y-77777200D03*
%TD*%
D23*
%TO.P,R1,1*%
%TO.N,Net-(D1-A)*%
X95750000Y-92300000D03*
%TO.P,R1,2*%
%TO.N,Net-(D1-K)*%
X95750000Y-95400000D03*
%TD*%
D35*
%TO.P,R3,1*%
%TO.N,GND*%
X92178400Y-72902200D03*
%TO.P,R3,2*%
%TO.N,Net-(JP1-A)*%
X89078400Y-72902200D03*
%TD*%
%TO.P,R2,1*%
%TO.N,GND*%
X92178400Y-68902200D03*
%TO.P,R2,2*%
%TO.N,Net-(JP2-A)*%
X89078400Y-68902200D03*
%TD*%
D36*
%TO.N,/A5*%
X161033400Y-109417200D03*
X113458400Y-111367200D03*
X159998400Y-97902200D03*
X113460000Y-106912200D03*
X113460000Y-59942200D03*
%TO.N,/A8*%
X143183400Y-107567200D03*
X162258400Y-106442200D03*
X161183400Y-95812200D03*
X123298400Y-97067200D03*
X117038400Y-62512200D03*
X117050000Y-95902200D03*
X143198400Y-95792200D03*
X111058400Y-95982200D03*
X118408400Y-109517200D03*
X111058400Y-107542200D03*
%TO.N,/~{IPL2}*%
X142700000Y-47150000D03*
X155218500Y-48152200D03*
X150473400Y-85397200D03*
%TO.N,/A15*%
X147083400Y-105017200D03*
X147083400Y-96502200D03*
X141383400Y-75632200D03*
X141398400Y-98502200D03*
%TO.N,/~{OVR}*%
X108378400Y-55412200D03*
X136878400Y-55472200D03*
X137488400Y-83622200D03*
%TO.N,GND*%
X144798400Y-55152200D03*
X119898400Y-82002200D03*
X149928400Y-101532200D03*
X119898400Y-65502200D03*
X169438400Y-102252200D03*
X196698400Y-77777200D03*
X163598400Y-91102200D03*
X129738400Y-73102200D03*
X105398400Y-121502200D03*
X127668400Y-90842200D03*
X131683400Y-116642200D03*
X140238400Y-89282200D03*
X181298400Y-109302200D03*
X181438400Y-74392200D03*
X145328400Y-64842200D03*
X163898400Y-74402200D03*
X89198400Y-48602200D03*
X181398400Y-67902200D03*
X108998400Y-99702200D03*
X153328400Y-83252200D03*
X147025600Y-121525000D03*
X153638400Y-66742200D03*
X169833400Y-116667200D03*
X92178400Y-70852200D03*
X93598400Y-104602200D03*
X102398400Y-113202200D03*
X179935900Y-82152200D03*
X196548400Y-87977200D03*
X146578400Y-89242200D03*
X134268400Y-65192200D03*
X126698400Y-100002200D03*
%TO.N,+5V*%
X153558400Y-74362200D03*
X133198400Y-100002200D03*
X155598400Y-91114700D03*
X98598400Y-104602200D03*
X181400000Y-92850000D03*
X129698400Y-82002200D03*
X140458400Y-87942200D03*
X138958400Y-64862200D03*
X151598400Y-99702200D03*
X177968400Y-77192200D03*
X134198400Y-103162200D03*
X89298400Y-108402200D03*
X134278400Y-88042200D03*
X129998400Y-65502200D03*
X181400000Y-102200000D03*
X150388400Y-64922200D03*
X123233400Y-102492200D03*
X172333400Y-102222200D03*
X90050000Y-93802200D03*
X117098400Y-101602200D03*
X156350000Y-102517200D03*
X152098400Y-54800000D03*
X101700000Y-109700000D03*
X92498400Y-48602200D03*
%TO.N,/~{OE}*%
X140358400Y-112742200D03*
X175558400Y-97980727D03*
X138518400Y-102382200D03*
X174883400Y-112787200D03*
X137948400Y-87562200D03*
%TO.N,/A1*%
X117108400Y-117617200D03*
X121298400Y-56742200D03*
%TO.N,/A16*%
X167978400Y-102342200D03*
X167348400Y-58112200D03*
X143268400Y-58182200D03*
X131058400Y-95602200D03*
X135150000Y-76902200D03*
X119598400Y-95602200D03*
X143268400Y-76912200D03*
X131048400Y-106512200D03*
X117858400Y-103745000D03*
X135150000Y-95602200D03*
%TO.N,/A9*%
X148868400Y-109912200D03*
X131898400Y-107612200D03*
X133233400Y-111267935D03*
X148868400Y-107352200D03*
X117295246Y-108817489D03*
X122198400Y-68702200D03*
%TO.N,Net-(U2-DIS)*%
X94000000Y-107800000D03*
%TO.N,/~{FC0}*%
X122918400Y-83222200D03*
%TO.N,/A17*%
X110136200Y-103745000D03*
X148728400Y-103745000D03*
X179025000Y-108307200D03*
X149228400Y-93692200D03*
X110083400Y-95792200D03*
X179025000Y-92092200D03*
X146480000Y-78152200D03*
%TO.N,/A18*%
X103691200Y-102475000D03*
X144938400Y-79452200D03*
X147800000Y-102467200D03*
X111378400Y-79482200D03*
%TO.N,Net-(D1-K)*%
X93400000Y-105900000D03*
%TO.N,/A19*%
X123508400Y-105015000D03*
X148518400Y-80752200D03*
X123978400Y-80772200D03*
X156128400Y-105052200D03*
%TO.N,/A10*%
X152275000Y-104392200D03*
X124608400Y-109597200D03*
X141108400Y-110192200D03*
X152358400Y-110092200D03*
X141158400Y-104392200D03*
X124598400Y-68012200D03*
%TO.N,/~{FC1}*%
X125498400Y-84522200D03*
%TO.N,/A11*%
X142400000Y-69282200D03*
X116000735Y-130599265D03*
X114826098Y-113928965D03*
X179440600Y-130634400D03*
X130000000Y-49100000D03*
X142400000Y-49100000D03*
X141733400Y-114007200D03*
X179558400Y-114092200D03*
%TO.N,/A12*%
X132500000Y-70552200D03*
X131058400Y-112135590D03*
%TO.N,/~{DTACK}*%
X162438400Y-82042200D03*
%TO.N,/~{IPL0}*%
X137658400Y-68112200D03*
X145348400Y-89292200D03*
X144118400Y-68102200D03*
%TO.N,/~{RST}*%
X134318400Y-47982200D03*
X134338400Y-85772200D03*
X154150000Y-49050000D03*
%TO.N,/A13*%
X111900000Y-106267200D03*
X135750000Y-71822200D03*
X167268400Y-95172200D03*
X148383400Y-95132200D03*
X147688400Y-106282200D03*
X111868400Y-95112200D03*
X135750000Y-96400000D03*
X128225000Y-104642200D03*
X167258400Y-106067200D03*
X128208400Y-96400000D03*
%TO.N,/A20*%
X157900000Y-58842200D03*
%TO.N,/~{IPL1}*%
X140458400Y-85102200D03*
%TO.N,/A14*%
X153608400Y-107542200D03*
X139548400Y-101542200D03*
X140433400Y-107667200D03*
X152698400Y-102402200D03*
X139800000Y-74372200D03*
%TO.N,/~{HLT}*%
X156650000Y-51700000D03*
X150983400Y-86657200D03*
%TO.N,Net-(U7-3V3OUT)*%
X171848400Y-77892200D03*
X171228400Y-74672200D03*
%TO.N,Net-(D1-A)*%
X89450000Y-107150000D03*
X89508400Y-89600000D03*
%TO.N,/A21*%
X160448400Y-59532200D03*
%TO.N,/A22*%
X159178400Y-60132200D03*
%TO.N,Net-(D2-K)*%
X186148400Y-99100000D03*
X179798400Y-89402200D03*
X179758400Y-97042200D03*
X186098400Y-92712200D03*
%TO.N,/A23*%
X161720000Y-60772200D03*
%TO.N,/D15*%
X178450000Y-129962200D03*
X178450000Y-116600600D03*
X177408400Y-88542200D03*
X116257800Y-116442200D03*
X163500600Y-88592200D03*
X115900000Y-129650000D03*
%TO.N,/A3*%
X112188400Y-41432200D03*
X104625300Y-113925300D03*
X112188400Y-58282200D03*
%TO.N,/A4*%
X154258400Y-110692200D03*
X142333400Y-105142200D03*
X123058400Y-125092200D03*
X142336362Y-111317200D03*
X114748400Y-59152200D03*
X113533400Y-125067200D03*
X125608400Y-111492200D03*
X113533400Y-112642200D03*
%TO.N,/A6*%
X115400000Y-110067200D03*
X132338400Y-98342200D03*
X135750000Y-110899128D03*
X115400000Y-97292200D03*
X116000000Y-60802200D03*
X134008400Y-107842200D03*
%TO.N,/A7*%
X105950000Y-91550000D03*
X163133400Y-101742200D03*
X134808400Y-106542200D03*
X105950000Y-96632200D03*
X105950000Y-108817200D03*
X119248400Y-61612200D03*
X120398400Y-91550000D03*
X134808400Y-97742200D03*
X163150000Y-107707200D03*
X134833400Y-110042200D03*
%TO.N,/A2*%
X105350000Y-93417200D03*
X151548400Y-115162200D03*
X105407800Y-115167200D03*
X119358400Y-93417200D03*
X150008400Y-93052200D03*
X118098400Y-57502200D03*
%TO.N,/D14*%
X175968400Y-59562200D03*
X169340000Y-59560000D03*
X174908400Y-116692200D03*
%TO.N,/R_W*%
X102683400Y-105667200D03*
X135458400Y-103117200D03*
X110448400Y-49952200D03*
X143298400Y-88982200D03*
X144038400Y-57442200D03*
X144000000Y-49950000D03*
X154875000Y-102062200D03*
X135750000Y-101292200D03*
X144508400Y-99372200D03*
X154875000Y-97102200D03*
X170600000Y-57422200D03*
X154858400Y-106267200D03*
%TO.N,/D13*%
X115900000Y-119450000D03*
X167958400Y-119842200D03*
X115910000Y-128660000D03*
X167938400Y-129182200D03*
%TO.N,/~{LDS}*%
X173150000Y-47262200D03*
X131278400Y-46462200D03*
X129978400Y-88432200D03*
%TO.N,/D12*%
X172208400Y-126167200D03*
X127200000Y-126792200D03*
X166450000Y-126150000D03*
X166550000Y-53100000D03*
X172383400Y-116617200D03*
X174450000Y-53100000D03*
X127200000Y-121550000D03*
%TO.N,/~{UDS}*%
X133398400Y-89182200D03*
X178200000Y-56742200D03*
X133368400Y-52572200D03*
%TO.N,/D11*%
X171108400Y-126967200D03*
X120858400Y-126642200D03*
X171108400Y-116592200D03*
X120858400Y-122667200D03*
%TO.N,/~{AS}*%
X147468400Y-82212200D03*
X150258400Y-41822200D03*
%TO.N,/D3*%
X183138400Y-47472200D03*
X180958400Y-121650000D03*
X132933400Y-126592200D03*
X183100000Y-85742200D03*
X132933400Y-116717200D03*
%TO.N,/D10*%
X131778400Y-50842200D03*
X147248400Y-50932200D03*
X147348100Y-46301900D03*
X168583400Y-124767200D03*
X130408400Y-125592200D03*
X168583400Y-116692200D03*
X183400000Y-46200000D03*
%TO.N,/D8*%
X163808400Y-119217200D03*
X136333400Y-122542200D03*
X136733400Y-45717200D03*
X163783400Y-116592200D03*
%TO.N,/D0*%
X129698400Y-129382200D03*
X162848400Y-86342200D03*
X129683400Y-116542200D03*
X182040000Y-72892200D03*
X161378400Y-128202200D03*
X130848400Y-86742200D03*
X182050000Y-86350000D03*
%TO.N,/D4*%
X134233400Y-125192200D03*
X178300000Y-59050000D03*
X180275000Y-121000000D03*
X134208400Y-116717200D03*
X178300000Y-68702200D03*
%TO.N,/D9*%
X128958400Y-123542200D03*
X167358400Y-116767200D03*
X129948400Y-51642200D03*
X167358400Y-123442200D03*
X185850000Y-56132200D03*
%TO.N,/D2*%
X170483400Y-125392200D03*
X187000000Y-95375000D03*
X142783400Y-125392200D03*
X187000000Y-69342200D03*
X142783400Y-120292200D03*
X171450000Y-93475000D03*
%TO.N,/D7*%
X165798400Y-75884700D03*
X162228400Y-115967200D03*
X165798400Y-60432200D03*
%TO.N,/D6*%
X185180000Y-85152200D03*
X189800000Y-57750000D03*
X185900000Y-57800000D03*
X183333400Y-115717200D03*
%TO.N,/D1*%
X138698400Y-89002200D03*
X184550000Y-69942200D03*
X127498400Y-94902200D03*
X147958400Y-118992200D03*
X127505056Y-119402200D03*
X145683400Y-94417200D03*
X184550000Y-95942200D03*
X138698400Y-94402200D03*
%TO.N,/D5*%
X190848400Y-113832200D03*
X168098400Y-61092200D03*
X168178400Y-90492200D03*
X135458400Y-124192200D03*
X135458400Y-116717200D03*
X168098400Y-77284700D03*
X190848400Y-94372200D03*
%TO.N,Net-(U7-USBDM)*%
X177128400Y-78502200D03*
X177158400Y-71392200D03*
%TO.N,Net-(U1-I{slash}O_35)*%
X140183400Y-115292200D03*
X137150000Y-84473800D03*
%TO.N,Net-(U1-I{slash}O_37)*%
X154783400Y-115167200D03*
X157768400Y-89602200D03*
%TO.N,Net-(U1-I{slash}O_36)*%
X170050000Y-91172200D03*
X170050000Y-114302200D03*
%TO.N,/DN*%
X185988400Y-74392200D03*
X185988400Y-82652200D03*
%TO.N,/FT_TXE*%
X173668400Y-87102200D03*
X158638400Y-78172200D03*
X173681000Y-75952200D03*
X158638400Y-87112200D03*
%TO.N,/FT_RXF*%
X172378400Y-87772200D03*
X157598400Y-76902200D03*
X173078400Y-75314700D03*
X157598400Y-87732200D03*
%TO.N,Net-(U1-I{slash}O_22)*%
X90600000Y-98100000D03*
%TO.N,Net-(U1-I{slash}O_23)*%
X112700000Y-92542200D03*
X112758400Y-115792200D03*
%TD*%
D37*
%TO.N,/A5*%
X115624400Y-111350600D02*
X116232800Y-110742200D01*
X123933400Y-106917200D02*
X113905000Y-106917200D01*
X113475000Y-111350600D02*
X115624400Y-111350600D01*
X148775600Y-111365000D02*
X144944400Y-111365000D01*
X116232800Y-110742200D02*
X124683400Y-110742200D01*
X113460000Y-59942200D02*
X130628400Y-59942200D01*
X142458400Y-100942200D02*
X137598400Y-100942200D01*
X148128400Y-97902200D02*
X145748400Y-100282200D01*
X150723400Y-109417200D02*
X148775600Y-111365000D01*
X133088400Y-101892200D02*
X132308400Y-102672200D01*
X107596600Y-111367200D02*
X107594400Y-111365000D01*
X145748400Y-100282200D02*
X143118400Y-100282200D01*
X162033400Y-109626514D02*
X162654086Y-110247200D01*
X113900000Y-106912200D02*
X113460000Y-106912200D01*
X128178400Y-102672200D02*
X123933400Y-106917200D01*
X161033400Y-109417200D02*
X161833400Y-109417200D01*
X137598400Y-100942200D02*
X136648400Y-101892200D01*
X131338400Y-60652200D02*
X131338400Y-62689700D01*
X130628400Y-59942200D02*
X131338400Y-60652200D01*
X113458400Y-111367200D02*
X107596600Y-111367200D01*
X159998400Y-97902200D02*
X148128400Y-97902200D01*
X162654086Y-110247200D02*
X165545900Y-110247200D01*
X161833400Y-109417200D02*
X162033400Y-109617200D01*
X136648400Y-101892200D02*
X133088400Y-101892200D01*
X125228400Y-110197200D02*
X127370900Y-110197200D01*
X113905000Y-106917200D02*
X113900000Y-106912200D01*
X113458400Y-111367200D02*
X113475000Y-111350600D01*
X162033400Y-109617200D02*
X162033400Y-109626514D01*
X161033400Y-109417200D02*
X150723400Y-109417200D01*
X143118400Y-100282200D02*
X142458400Y-100942200D01*
X132308400Y-102672200D02*
X128178400Y-102672200D01*
X124683400Y-110742200D02*
X125228400Y-110197200D01*
%TO.N,/A8*%
X117048400Y-62502200D02*
X122894000Y-62502200D01*
X126964871Y-106387200D02*
X123834871Y-109517200D01*
X162263400Y-106437200D02*
X165545900Y-106437200D01*
X117040000Y-95912200D02*
X117050000Y-95902200D01*
X143183400Y-107567200D02*
X144932200Y-107567200D01*
X123298400Y-97067200D02*
X118215000Y-97067200D01*
X117038400Y-62512200D02*
X117048400Y-62502200D01*
X124598400Y-64202200D02*
X127285900Y-64202200D01*
X122896200Y-62500000D02*
X124598400Y-64202200D01*
X123298400Y-97067200D02*
X140533400Y-97067200D01*
X161143400Y-95772200D02*
X143218400Y-95772200D01*
X118215000Y-97067200D02*
X117050000Y-95902200D01*
X144932200Y-107567200D02*
X144944400Y-107555000D01*
X162258400Y-106442200D02*
X162263400Y-106437200D01*
X122894000Y-62502200D02*
X122896200Y-62500000D01*
X111058400Y-107542200D02*
X111033400Y-107567200D01*
X127370900Y-106387200D02*
X126964871Y-106387200D01*
X143218400Y-95772200D02*
X143198400Y-95792200D01*
X111128400Y-95912200D02*
X117040000Y-95912200D01*
X161183400Y-95812200D02*
X161143400Y-95772200D01*
X107606600Y-107567200D02*
X107594400Y-107555000D01*
X123834871Y-109517200D02*
X118408400Y-109517200D01*
X140533400Y-97067200D02*
X141808400Y-95792200D01*
X141808400Y-95792200D02*
X143198400Y-95792200D01*
X111058400Y-95982200D02*
X111128400Y-95912200D01*
X111033400Y-107567200D02*
X107606600Y-107567200D01*
%TO.N,/~{IPL2}*%
X145248400Y-48152200D02*
X144246200Y-47150000D01*
X149118400Y-86752200D02*
X149118400Y-91114700D01*
X150473400Y-85397200D02*
X149118400Y-86752200D01*
X144246200Y-47150000D02*
X142700000Y-47150000D01*
X155218500Y-48152200D02*
X145248400Y-48152200D01*
%TO.N,/A15*%
X132508400Y-101142200D02*
X132008400Y-101642200D01*
X138500900Y-106392200D02*
X138495900Y-106387200D01*
X127783400Y-101642200D02*
X123758400Y-105667200D01*
X144944400Y-105015000D02*
X147081200Y-105015000D01*
X143823952Y-98502200D02*
X141398400Y-98502200D01*
X177228400Y-97522200D02*
X177228400Y-104872200D01*
X176670900Y-105429700D02*
X176670900Y-106437200D01*
X141398400Y-98502200D02*
X133478400Y-98502200D01*
X147081200Y-105015000D02*
X147083400Y-105017200D01*
X147083400Y-96502200D02*
X145823952Y-96502200D01*
X147083400Y-96502200D02*
X176208400Y-96502200D01*
X113231200Y-105015000D02*
X107594400Y-105015000D01*
X127285900Y-75632200D02*
X141383400Y-75632200D01*
X142283400Y-106392200D02*
X138500900Y-106392200D01*
X132508400Y-99472200D02*
X132508400Y-101142200D01*
X176208400Y-96502200D02*
X177228400Y-97522200D01*
X123758400Y-105667200D02*
X113883400Y-105667200D01*
X132008400Y-101642200D02*
X127783400Y-101642200D01*
X133478400Y-98502200D02*
X132508400Y-99472200D01*
X113883400Y-105667200D02*
X113231200Y-105015000D01*
X144944400Y-105015000D02*
X143660600Y-105015000D01*
X143660600Y-105015000D02*
X142283400Y-106392200D01*
X145823952Y-96502200D02*
X143823952Y-98502200D01*
X177228400Y-104872200D02*
X176670900Y-105429700D01*
%TO.N,/~{OVR}*%
X152328400Y-83622200D02*
X137488400Y-83622200D01*
X153228400Y-84522200D02*
X152328400Y-83622200D01*
X136878400Y-55472200D02*
X108438400Y-55472200D01*
X108438400Y-55472200D02*
X108378400Y-55412200D01*
X155710900Y-84522200D02*
X153228400Y-84522200D01*
D38*
%TO.N,GND*%
X140228400Y-89292200D02*
X140238400Y-89282200D01*
X127285900Y-90459700D02*
X127668400Y-90842200D01*
X126698400Y-100002200D02*
X127468400Y-100002200D01*
X181338100Y-109262500D02*
X181298400Y-109302200D01*
X145308400Y-62689700D02*
X145308400Y-64822200D01*
X202322000Y-78352200D02*
X202897000Y-77777200D01*
X202897000Y-87997200D02*
X196568400Y-87997200D01*
X118335900Y-65502200D02*
X119898400Y-65502200D01*
X179935900Y-82152200D02*
X179935900Y-83889700D01*
D37*
X169898400Y-76584700D02*
X175098400Y-76584700D01*
D38*
X179935900Y-80402200D02*
X179935900Y-82152200D01*
X145308400Y-64822200D02*
X145328400Y-64842200D01*
X131683400Y-118284700D02*
X131663400Y-118304700D01*
X89196200Y-48600000D02*
X89198400Y-48602200D01*
X169838400Y-118354700D02*
X169838400Y-116672200D01*
X87587500Y-48600000D02*
X89196200Y-48600000D01*
X175098400Y-76584700D02*
X176355900Y-76584700D01*
X178538400Y-74402200D02*
X179935900Y-74402200D01*
X165023400Y-91102200D02*
X163598400Y-91102200D01*
X105421200Y-121525000D02*
X105398400Y-121502200D01*
X133878400Y-64802200D02*
X134268400Y-65192200D01*
X107594400Y-121525000D02*
X105421200Y-121525000D01*
X196568400Y-87997200D02*
X196548400Y-87977200D01*
X183200000Y-109262500D02*
X181338100Y-109262500D01*
X179948400Y-67902200D02*
X181398400Y-67902200D01*
X131683400Y-116642200D02*
X131683400Y-118284700D01*
X127468400Y-100002200D02*
X127470600Y-100000000D01*
X176355900Y-76584700D02*
X178538400Y-74402200D01*
X91525000Y-104645000D02*
X93555600Y-104645000D01*
X179935900Y-83889700D02*
X179948400Y-83902200D01*
X129728400Y-73092200D02*
X129738400Y-73102200D01*
X202897000Y-87997200D02*
X206500000Y-87997200D01*
X118235900Y-81972200D02*
X119868400Y-81972200D01*
X127285900Y-73092200D02*
X129728400Y-73092200D01*
X127285900Y-89602200D02*
X127285900Y-90459700D01*
X92178400Y-72902200D02*
X92178400Y-70852200D01*
X155710900Y-83252200D02*
X153328400Y-83252200D01*
X202322000Y-87422200D02*
X202897000Y-87997200D01*
X127470600Y-100000000D02*
X131435900Y-100000000D01*
X202322000Y-86237200D02*
X202322000Y-87422200D01*
X202322000Y-79537200D02*
X202322000Y-78352200D01*
X140228400Y-91114700D02*
X140228400Y-89292200D01*
X143060900Y-55152200D02*
X144798400Y-55152200D01*
X169438400Y-100107500D02*
X169545900Y-100000000D01*
X181428400Y-74402200D02*
X181438400Y-74392200D01*
X165023400Y-74402200D02*
X163898400Y-74402200D01*
X119868400Y-81972200D02*
X119898400Y-82002200D01*
X146578400Y-91114700D02*
X146578400Y-89242200D01*
X133878400Y-62689700D02*
X133878400Y-64802200D01*
X169838400Y-116672200D02*
X169833400Y-116667200D01*
X202897000Y-77777200D02*
X206500000Y-77777200D01*
X109018400Y-99722200D02*
X108998400Y-99702200D01*
X202897000Y-77777200D02*
X196698400Y-77777200D01*
X147025600Y-121525000D02*
X144944400Y-121525000D01*
X102400000Y-113203800D02*
X102398400Y-113202200D01*
X179935900Y-74402200D02*
X181428400Y-74402200D01*
X149925900Y-99722200D02*
X149925900Y-101529700D01*
X92178400Y-70852200D02*
X92178400Y-68902200D01*
X169438400Y-102252200D02*
X169438400Y-100107500D01*
X174060900Y-67902200D02*
X179948400Y-67902200D01*
D37*
X146600000Y-91175000D02*
X146625000Y-91200000D01*
D38*
X155710900Y-66742200D02*
X153638400Y-66742200D01*
X112665900Y-99722200D02*
X109018400Y-99722200D01*
X93555600Y-104645000D02*
X93598400Y-104602200D01*
X102400000Y-114712500D02*
X102400000Y-113203800D01*
X149925900Y-101529700D02*
X149928400Y-101532200D01*
%TO.N,+5V*%
X139935900Y-59064700D02*
X139935900Y-55152200D01*
X141498400Y-88982200D02*
X140458400Y-87942200D01*
X154198400Y-91114700D02*
X155598400Y-91114700D01*
X129678400Y-81982200D02*
X129698400Y-82002200D01*
X121460900Y-65502200D02*
X127255900Y-65502200D01*
X116518400Y-99722200D02*
X116998400Y-100202200D01*
X172333400Y-104634700D02*
X172378400Y-104679700D01*
X127285900Y-81982200D02*
X129678400Y-81982200D01*
X88100000Y-95400000D02*
X88100000Y-94300600D01*
X135148400Y-88912200D02*
X134278400Y-88042200D01*
X158164600Y-102467200D02*
X158172400Y-102475000D01*
X172333400Y-102222200D02*
X172648400Y-101907200D01*
X152098400Y-54800000D02*
X154050000Y-54800000D01*
X89351200Y-108455000D02*
X89298400Y-108402200D01*
X161885900Y-91114700D02*
X161898400Y-91102200D01*
X183200000Y-102200000D02*
X181400000Y-102200000D01*
X173885900Y-78489700D02*
X175098400Y-78489700D01*
X156350000Y-102517200D02*
X156400000Y-102467200D01*
X127275900Y-81972200D02*
X127285900Y-81982200D01*
X117098400Y-100302200D02*
X117098400Y-101602200D01*
X133200600Y-100000000D02*
X133198400Y-100002200D01*
X121028400Y-65472200D02*
X120998400Y-65502200D01*
X102400000Y-109950000D02*
X102400000Y-111587500D01*
X153050900Y-99722200D02*
X151618400Y-99722200D01*
X172648400Y-100022500D02*
X172670900Y-100000000D01*
X172648400Y-101907200D02*
X172648400Y-100022500D01*
X183200000Y-106137500D02*
X183200000Y-102200000D01*
X138958400Y-62689700D02*
X138958400Y-64862200D01*
X155710900Y-74362200D02*
X161858400Y-74362200D01*
X175098400Y-77219700D02*
X177940900Y-77219700D01*
X173478400Y-77622200D02*
X173478400Y-78082200D01*
X101700000Y-109700000D02*
X102150000Y-109700000D01*
X102150000Y-109700000D02*
X102400000Y-109950000D01*
X138958400Y-62689700D02*
X138958400Y-60042200D01*
X88598400Y-93802200D02*
X90050000Y-93802200D01*
X181400000Y-92850000D02*
X183300000Y-92850000D01*
X134198400Y-104624700D02*
X134203400Y-104629700D01*
X88100000Y-94300600D02*
X88598400Y-93802200D01*
X173880900Y-77219700D02*
X173478400Y-77622200D01*
X91950000Y-93400000D02*
X91950000Y-92300000D01*
X98555600Y-104645000D02*
X98598400Y-104602200D01*
X161858400Y-74362200D02*
X161898400Y-74402200D01*
X150388400Y-62689700D02*
X150388400Y-64922200D01*
X121360900Y-81972200D02*
X127275900Y-81972200D01*
X92496200Y-48600000D02*
X92498400Y-48602200D01*
X155710900Y-74362200D02*
X153558400Y-74362200D01*
X156400000Y-102467200D02*
X158164600Y-102467200D01*
X134560900Y-100000000D02*
X133200600Y-100000000D01*
X150150000Y-54800000D02*
X152098400Y-54800000D01*
X141498400Y-91114700D02*
X141498400Y-88982200D01*
X90712500Y-48600000D02*
X92496200Y-48600000D01*
X91547800Y-93802200D02*
X91950000Y-93400000D01*
X129968400Y-65472200D02*
X129998400Y-65502200D01*
D37*
X94208400Y-81342200D02*
X94208400Y-82092200D01*
D38*
X127285900Y-65472200D02*
X129968400Y-65472200D01*
X120822400Y-102475000D02*
X123216200Y-102475000D01*
X172333400Y-102222200D02*
X172333400Y-104634700D01*
X123216200Y-102475000D02*
X123233400Y-102492200D01*
X90050000Y-93802200D02*
X91547800Y-93802200D01*
X127255900Y-65502200D02*
X127285900Y-65472200D01*
X134198400Y-103162200D02*
X134198400Y-104624700D01*
X116998400Y-100202200D02*
X117098400Y-100302200D01*
X96475000Y-104645000D02*
X98555600Y-104645000D01*
X135148400Y-91114700D02*
X135148400Y-88912200D01*
X177940900Y-77219700D02*
X177968400Y-77192200D01*
X173478400Y-78082200D02*
X173885900Y-78489700D01*
X155598400Y-91114700D02*
X161885900Y-91114700D01*
X115790900Y-99722200D02*
X116518400Y-99722200D01*
X91525000Y-108455000D02*
X89351200Y-108455000D01*
X175098400Y-77219700D02*
X173880900Y-77219700D01*
X138958400Y-60042200D02*
X139935900Y-59064700D01*
X151618400Y-99722200D02*
X151598400Y-99702200D01*
D37*
%TO.N,/~{OE}*%
X153898400Y-101902200D02*
X155348400Y-100452200D01*
X162718400Y-100452200D02*
X165189873Y-97980727D01*
X125033400Y-113367200D02*
X136158400Y-113367200D01*
X166433400Y-113417200D02*
X160283400Y-113417200D01*
X153198400Y-103102200D02*
X153898400Y-102402200D01*
X142918400Y-102382200D02*
X143778400Y-101522200D01*
X124301200Y-112635000D02*
X125033400Y-113367200D01*
X160283400Y-113417200D02*
X159501200Y-112635000D01*
X176670900Y-112787200D02*
X167063400Y-112787200D01*
X136418400Y-91114700D02*
X136418400Y-89092200D01*
X140358400Y-112742200D02*
X138500900Y-112742200D01*
X159501200Y-112635000D02*
X158172400Y-112635000D01*
X136418400Y-89092200D02*
X137948400Y-87562200D01*
X149578400Y-103102200D02*
X153198400Y-103102200D01*
X136788400Y-112737200D02*
X138495900Y-112737200D01*
X138518400Y-102382200D02*
X142918400Y-102382200D01*
X153898400Y-102402200D02*
X153898400Y-101902200D01*
X120822400Y-112635000D02*
X124301200Y-112635000D01*
X147998400Y-101522200D02*
X149578400Y-103102200D01*
X167063400Y-112787200D02*
X166433400Y-113417200D01*
X136158400Y-113367200D02*
X136788400Y-112737200D01*
X158140200Y-112667200D02*
X158172400Y-112635000D01*
X155348400Y-100452200D02*
X162718400Y-100452200D01*
X165189873Y-97980727D02*
X175558400Y-97980727D01*
X143778400Y-101522200D02*
X147998400Y-101522200D01*
X138500900Y-112742200D02*
X138495900Y-112737200D01*
%TO.N,/A1*%
X125348400Y-115277200D02*
X129373400Y-115277200D01*
X129373400Y-115277200D02*
X129983400Y-114667200D01*
X123558400Y-117067200D02*
X125348400Y-115277200D01*
X141133400Y-115917200D02*
X141661200Y-116445000D01*
X129983400Y-114667200D02*
X135808400Y-114667200D01*
X141661200Y-116445000D02*
X144944400Y-116445000D01*
X137058400Y-115917200D02*
X141133400Y-115917200D01*
X159583400Y-115792200D02*
X149883400Y-115792200D01*
X160048400Y-115327200D02*
X159583400Y-115792200D01*
X117108400Y-117617200D02*
X112867200Y-117617200D01*
X117658400Y-117067200D02*
X123558400Y-117067200D01*
X149883400Y-115792200D02*
X149230600Y-116445000D01*
X117108400Y-117617200D02*
X117658400Y-117067200D01*
X137688400Y-57812200D02*
X137688400Y-62689700D01*
X111695000Y-116445000D02*
X107594400Y-116445000D01*
X112867200Y-117617200D02*
X111695000Y-116445000D01*
X136618400Y-56742200D02*
X137688400Y-57812200D01*
X149230600Y-116445000D02*
X144944400Y-116445000D01*
X121298400Y-56742200D02*
X136618400Y-56742200D01*
X135808400Y-114667200D02*
X137058400Y-115917200D01*
X165545900Y-115327200D02*
X160048400Y-115327200D01*
%TO.N,/A16*%
X135160000Y-76912200D02*
X135150000Y-76902200D01*
X143258400Y-58192200D02*
X143268400Y-58182200D01*
X167328400Y-58132200D02*
X143318400Y-58132200D01*
X161128400Y-102342200D02*
X159725600Y-103745000D01*
X143318400Y-58132200D02*
X143268400Y-58182200D01*
X131048400Y-106512200D02*
X131048400Y-106352200D01*
X168568400Y-102932200D02*
X168568400Y-104679700D01*
X167978400Y-102342200D02*
X161128400Y-102342200D01*
X130393400Y-105697200D02*
X130393400Y-104629700D01*
X131048400Y-106352200D02*
X130393400Y-105697200D01*
X143268400Y-76912200D02*
X135160000Y-76912200D01*
X117858400Y-103745000D02*
X120822400Y-103745000D01*
X131058400Y-95602200D02*
X119598400Y-95602200D01*
X127285900Y-76902200D02*
X135150000Y-76902200D01*
X159725600Y-103745000D02*
X158172400Y-103745000D01*
X135150000Y-95602200D02*
X131058400Y-95602200D01*
X167348400Y-58112200D02*
X167328400Y-58132200D01*
X167978400Y-102342200D02*
X168568400Y-102932200D01*
%TO.N,Net-(JP1-C)*%
X92898400Y-84302200D02*
X94388400Y-85792200D01*
X91708400Y-77692200D02*
X91708400Y-77712200D01*
X92898400Y-78902200D02*
X92898400Y-84302200D01*
X94388400Y-85792200D02*
X127285900Y-85792200D01*
X91708400Y-77712200D02*
X92898400Y-78902200D01*
%TO.N,/A9*%
X161958400Y-108517200D02*
X163058400Y-109617200D01*
X133233400Y-111267935D02*
X134532665Y-111267935D01*
X136873400Y-108927200D02*
X138495900Y-108927200D01*
X163058400Y-109617200D02*
X167633400Y-109617200D01*
X148868400Y-109902200D02*
X149953400Y-108817200D01*
X168273400Y-108977200D02*
X176670900Y-108977200D01*
X131898400Y-107612200D02*
X130328400Y-107612200D01*
X122198400Y-68702200D02*
X124158400Y-66742200D01*
X160108400Y-108517200D02*
X161958400Y-108517200D01*
X124158400Y-66742200D02*
X127285900Y-66742200D01*
X123333111Y-108817489D02*
X117295246Y-108817489D01*
X159808400Y-108817200D02*
X160108400Y-108517200D01*
X126728400Y-105422200D02*
X123333111Y-108817489D01*
X148868400Y-109912200D02*
X148868400Y-109902200D01*
X140389700Y-109353500D02*
X139963400Y-108927200D01*
X148868400Y-107352200D02*
X146867100Y-109353500D01*
X167633400Y-109617200D02*
X168273400Y-108977200D01*
X149953400Y-108817200D02*
X159808400Y-108817200D01*
X148868400Y-107352200D02*
X148868400Y-107352200D01*
X146867100Y-109353500D02*
X140389700Y-109353500D01*
X130328400Y-107612200D02*
X128138400Y-105422200D01*
X139963400Y-108927200D02*
X138495900Y-108927200D01*
X134532665Y-111267935D02*
X136873400Y-108927200D01*
X128138400Y-105422200D02*
X126728400Y-105422200D01*
%TO.N,Net-(U2-DIS)*%
X96475000Y-107185000D02*
X94265000Y-107185000D01*
X94000000Y-107450000D02*
X94000000Y-107800000D01*
X94000000Y-126944888D02*
X110511088Y-126944888D01*
X188718400Y-131302200D02*
X190958400Y-129062200D01*
X190958400Y-129062200D02*
X190958400Y-126442200D01*
X143978400Y-132032200D02*
X144708400Y-131302200D01*
X125728400Y-132032200D02*
X143978400Y-132032200D01*
X94050000Y-107400000D02*
X94000000Y-107450000D01*
X94265000Y-107185000D02*
X94050000Y-107400000D01*
X114928400Y-131362200D02*
X125058400Y-131362200D01*
X110511088Y-126944888D02*
X114928400Y-131362200D01*
X96475000Y-105915000D02*
X96475000Y-107185000D01*
X125058400Y-131362200D02*
X125728400Y-132032200D01*
X144708400Y-131302200D02*
X188718400Y-131302200D01*
%TO.N,/~{FC0}*%
X127285900Y-83252200D02*
X122948400Y-83252200D01*
X122948400Y-83252200D02*
X122918400Y-83222200D01*
%TO.N,/A17*%
X169838400Y-107447200D02*
X169838400Y-104679700D01*
X169508400Y-93692200D02*
X149228400Y-93692200D01*
X170733400Y-108342200D02*
X169838400Y-107447200D01*
X179025000Y-108307200D02*
X178990000Y-108342200D01*
X144944400Y-103745000D02*
X141936200Y-103745000D01*
X111573400Y-94302200D02*
X110083400Y-95792200D01*
X136108400Y-105617200D02*
X135783400Y-105942200D01*
X136108400Y-103467200D02*
X136108400Y-105617200D01*
X175312800Y-92092200D02*
X175310600Y-92090000D01*
X135783400Y-105942200D02*
X131958400Y-105942200D01*
X175310600Y-92090000D02*
X171110600Y-92090000D01*
X178990000Y-108342200D02*
X170733400Y-108342200D01*
X131663400Y-105647200D02*
X131663400Y-104629700D01*
X149228400Y-93692200D02*
X138208400Y-93692200D01*
X141936200Y-103745000D02*
X141258400Y-103067200D01*
X148728400Y-103745000D02*
X144944400Y-103745000D01*
X136508400Y-103067200D02*
X136108400Y-103467200D01*
X137598400Y-94302200D02*
X111573400Y-94302200D01*
X138208400Y-93692200D02*
X137598400Y-94302200D01*
X131958400Y-105942200D02*
X131663400Y-105647200D01*
X146460000Y-78172200D02*
X146480000Y-78152200D01*
X110136200Y-103745000D02*
X107594400Y-103745000D01*
X179025000Y-92092200D02*
X175312800Y-92092200D01*
X171110600Y-92090000D02*
X169508400Y-93692200D01*
X141258400Y-103067200D02*
X136508400Y-103067200D01*
X127285900Y-78172200D02*
X146460000Y-78172200D01*
%TO.N,/A18*%
X147792200Y-102475000D02*
X144944400Y-102475000D01*
X127285900Y-79442200D02*
X144928400Y-79442200D01*
X111378400Y-79482200D02*
X111418400Y-79442200D01*
X144928400Y-79442200D02*
X144938400Y-79452200D01*
X111418400Y-79442200D02*
X127285900Y-79442200D01*
X147800000Y-102467200D02*
X147792200Y-102475000D01*
X103691200Y-102475000D02*
X107594400Y-102475000D01*
%TO.N,Net-(D1-K)*%
X93385000Y-105915000D02*
X93400000Y-105900000D01*
X97250000Y-103350000D02*
X97800000Y-102800000D01*
X97800000Y-95462500D02*
X97737500Y-95400000D01*
X97800000Y-102800000D02*
X97800000Y-95462500D01*
X97737500Y-95400000D02*
X95750000Y-95400000D01*
X95150000Y-103350000D02*
X97250000Y-103350000D01*
X93400000Y-105900000D02*
X94200000Y-105900000D01*
X91525000Y-105915000D02*
X93385000Y-105915000D01*
X94650000Y-103850000D02*
X95150000Y-103350000D01*
X97737500Y-95400000D02*
X99637500Y-95400000D01*
X94200000Y-105900000D02*
X94650000Y-105450000D01*
X94650000Y-105450000D02*
X94650000Y-103850000D01*
%TO.N,/A19*%
X123508400Y-105015000D02*
X120822400Y-105015000D01*
X156165600Y-105015000D02*
X156128400Y-105052200D01*
X123978400Y-80772200D02*
X124038400Y-80712200D01*
X158172400Y-105015000D02*
X156165600Y-105015000D01*
X148518400Y-80752200D02*
X148478400Y-80712200D01*
X124038400Y-80712200D02*
X127285900Y-80712200D01*
X148478400Y-80712200D02*
X127285900Y-80712200D01*
%TO.N,/A10*%
X167533400Y-110867200D02*
X168153400Y-110247200D01*
X138495900Y-110197200D02*
X141103400Y-110197200D01*
X161033400Y-110867200D02*
X167533400Y-110867200D01*
X141103400Y-110197200D02*
X141108400Y-110192200D01*
X152275000Y-104392200D02*
X138408400Y-104392200D01*
X138408400Y-104392200D02*
X133233400Y-109567200D01*
X133233400Y-109567200D02*
X124638400Y-109567200D01*
X168153400Y-110247200D02*
X174333400Y-110247200D01*
X127285900Y-68012200D02*
X124598400Y-68012200D01*
X124113400Y-110092200D02*
X120825200Y-110092200D01*
X124638400Y-109567200D02*
X124608400Y-109597200D01*
X174333400Y-110247200D02*
X176670900Y-110247200D01*
X120825200Y-110092200D02*
X120822400Y-110095000D01*
X152358400Y-110092200D02*
X160258400Y-110092200D01*
X124608400Y-109597200D02*
X124113400Y-110092200D01*
X160258400Y-110092200D02*
X161033400Y-110867200D01*
%TO.N,/~{FC1}*%
X127285900Y-84522200D02*
X125498400Y-84522200D01*
%TO.N,/A11*%
X123341200Y-113950000D02*
X124033400Y-114642200D01*
X114847133Y-113950000D02*
X123341200Y-113950000D01*
X114826098Y-113928965D02*
X114847133Y-113950000D01*
X179440600Y-130634400D02*
X144346200Y-130634400D01*
X176703700Y-114090000D02*
X176670900Y-114057200D01*
X126528400Y-131452200D02*
X125675465Y-130599265D01*
X130000000Y-49100000D02*
X142400000Y-49100000D01*
X144346200Y-130634400D02*
X143528400Y-131452200D01*
X150058400Y-114517200D02*
X150670600Y-113905000D01*
X127285900Y-69282200D02*
X142400000Y-69282200D01*
X125675465Y-130599265D02*
X116000735Y-130599265D01*
X176670900Y-114057200D02*
X179523400Y-114057200D01*
X142243400Y-114517200D02*
X150058400Y-114517200D01*
X141733400Y-114007200D02*
X142243400Y-114517200D01*
X129868400Y-114007200D02*
X138495900Y-114007200D01*
X143528400Y-131452200D02*
X126528400Y-131452200D01*
X129233400Y-114642200D02*
X129868400Y-114007200D01*
X124033400Y-114642200D02*
X129233400Y-114642200D01*
X179523400Y-114057200D02*
X179558400Y-114092200D01*
X141733400Y-114007200D02*
X138495900Y-114007200D01*
X150670600Y-113905000D02*
X158172400Y-113905000D01*
%TO.N,/A12*%
X138463972Y-111499128D02*
X138495900Y-111467200D01*
X160658400Y-112142200D02*
X159881200Y-111365000D01*
X134775600Y-112075000D02*
X135351472Y-111499128D01*
X135351472Y-111499128D02*
X138463972Y-111499128D01*
X141445676Y-111467200D02*
X143245676Y-113267200D01*
X170733400Y-111517200D02*
X170108400Y-112142200D01*
X125058400Y-112117200D02*
X124306200Y-111365000D01*
X131118990Y-112075000D02*
X134775600Y-112075000D01*
X131040010Y-112117200D02*
X125058400Y-112117200D01*
X143245676Y-113267200D02*
X148458400Y-113267200D01*
X176670900Y-111517200D02*
X170733400Y-111517200D01*
X158170200Y-111367200D02*
X158172400Y-111365000D01*
X127285900Y-70552200D02*
X132500000Y-70552200D01*
X150358400Y-111367200D02*
X158170200Y-111367200D01*
X170108400Y-112142200D02*
X160658400Y-112142200D01*
X124306200Y-111365000D02*
X120822400Y-111365000D01*
X131058400Y-112135590D02*
X131118990Y-112075000D01*
X131058400Y-112135590D02*
X131040010Y-112117200D01*
X138495900Y-111467200D02*
X141445676Y-111467200D01*
X148458400Y-113267200D02*
X150358400Y-111367200D01*
X159881200Y-111365000D02*
X158172400Y-111365000D01*
%TO.N,/~{DTACK}*%
X162368400Y-81972200D02*
X155720900Y-81972200D01*
X155720900Y-81972200D02*
X155710900Y-81982200D01*
X162438400Y-82042200D02*
X162368400Y-81972200D01*
%TO.N,/~{IPL0}*%
X145348400Y-89292200D02*
X145348400Y-91074700D01*
X137670600Y-68100000D02*
X144116200Y-68100000D01*
X144116200Y-68100000D02*
X144118400Y-68102200D01*
X137658400Y-68112200D02*
X137670600Y-68100000D01*
X145348400Y-91074700D02*
X145308400Y-91114700D01*
%TO.N,/~{RST}*%
X144038400Y-87492200D02*
X144038400Y-91114700D01*
X150150000Y-49150000D02*
X150200000Y-49100000D01*
X144336200Y-49100000D02*
X150200000Y-49100000D01*
X154150000Y-49050000D02*
X154100000Y-49100000D01*
X134318400Y-47982200D02*
X143218400Y-47982200D01*
X142318400Y-85772200D02*
X144038400Y-87492200D01*
X134338400Y-85772200D02*
X142318400Y-85772200D01*
X150150000Y-51700000D02*
X150150000Y-49150000D01*
X143218400Y-47982200D02*
X144336200Y-49100000D01*
X154100000Y-49100000D02*
X150200000Y-49100000D01*
%TO.N,/A13*%
X167258400Y-106067200D02*
X167258400Y-104719700D01*
X117828400Y-95112200D02*
X119108400Y-96392200D01*
X147668400Y-106292200D02*
X144951600Y-106292200D01*
X119108400Y-96392200D02*
X135742200Y-96392200D01*
X129123400Y-104629700D02*
X128237500Y-104629700D01*
X111900000Y-106267200D02*
X111875000Y-106292200D01*
X148383400Y-95132200D02*
X140768400Y-95132200D01*
X107601600Y-106292200D02*
X107594400Y-106285000D01*
X167188400Y-95092200D02*
X148423400Y-95092200D01*
X127285900Y-71822200D02*
X135750000Y-71822200D01*
X111868400Y-95112200D02*
X117828400Y-95112200D01*
X135742200Y-96392200D02*
X135750000Y-96400000D01*
X148423400Y-95092200D02*
X148383400Y-95132200D01*
X144951600Y-106292200D02*
X144944400Y-106285000D01*
X111875000Y-106292200D02*
X107601600Y-106292200D01*
X139500600Y-96400000D02*
X135750000Y-96400000D01*
X128237500Y-104629700D02*
X128225000Y-104642200D01*
X140768400Y-95132200D02*
X139500600Y-96400000D01*
X167258400Y-104719700D02*
X167298400Y-104679700D01*
X167268400Y-95172200D02*
X167188400Y-95092200D01*
%TO.N,/A20*%
X146578400Y-60272200D02*
X146578400Y-62689700D01*
X148008400Y-58842200D02*
X146578400Y-60272200D01*
X157900000Y-58842200D02*
X148008400Y-58842200D01*
%TO.N,/~{IPL1}*%
X147848400Y-87722200D02*
X147848400Y-91114700D01*
X145228400Y-85102200D02*
X147848400Y-87722200D01*
X140458400Y-85102200D02*
X145228400Y-85102200D01*
%TO.N,/A14*%
X176578400Y-97772200D02*
X176578400Y-104762200D01*
X158172400Y-107555000D02*
X153621200Y-107555000D01*
X175458400Y-107367200D02*
X175798400Y-107707200D01*
X153621200Y-107555000D02*
X153608400Y-107542200D01*
X175458400Y-105882200D02*
X175458400Y-107367200D01*
X140433400Y-107667200D02*
X140178400Y-107667200D01*
X139790000Y-74362200D02*
X139800000Y-74372200D01*
X139548400Y-101542200D02*
X142848400Y-101542200D01*
X175798400Y-107707200D02*
X176670900Y-107707200D01*
X133378400Y-102362200D02*
X132578400Y-103162200D01*
X176578400Y-104762200D02*
X175458400Y-105882200D01*
X148208400Y-100812200D02*
X149798400Y-102402200D01*
X123920600Y-107555000D02*
X120822400Y-107555000D01*
X139548400Y-101542200D02*
X137688400Y-101542200D01*
X140168400Y-107657200D02*
X138495900Y-107657200D01*
X162198400Y-99802200D02*
X164798400Y-97202200D01*
X152698400Y-102402200D02*
X155298400Y-99802200D01*
X176008400Y-97202200D02*
X176578400Y-97772200D01*
X140178400Y-107667200D02*
X140168400Y-107657200D01*
X164798400Y-97202200D02*
X176008400Y-97202200D01*
X143578400Y-100812200D02*
X148208400Y-100812200D01*
X127285900Y-74362200D02*
X139790000Y-74362200D01*
X149798400Y-102402200D02*
X152698400Y-102402200D01*
X155298400Y-99802200D02*
X162198400Y-99802200D01*
X128313400Y-103162200D02*
X123920600Y-107555000D01*
X142848400Y-101542200D02*
X143578400Y-100812200D01*
X136868400Y-102362200D02*
X133378400Y-102362200D01*
X132578400Y-103162200D02*
X128313400Y-103162200D01*
X137688400Y-101542200D02*
X136868400Y-102362200D01*
%TO.N,/~{HLT}*%
X154050000Y-51700000D02*
X156650000Y-51700000D01*
X150983400Y-86657200D02*
X150983400Y-86677200D01*
X150983400Y-86677200D02*
X150388400Y-87272200D01*
X150388400Y-87272200D02*
X150388400Y-91114700D01*
%TO.N,Net-(U7-3V3OUT)*%
X167898400Y-74402200D02*
X168175900Y-74679700D01*
X171848400Y-77892200D02*
X173080900Y-79124700D01*
X167898400Y-69002200D02*
X167898400Y-74402200D01*
X171220900Y-74679700D02*
X171228400Y-74672200D01*
X170935900Y-67902200D02*
X168998400Y-67902200D01*
X173080900Y-79124700D02*
X175098400Y-79124700D01*
X168998400Y-67902200D02*
X167898400Y-69002200D01*
X168175900Y-74679700D02*
X169898400Y-74679700D01*
X169898400Y-74679700D02*
X171220900Y-74679700D01*
%TO.N,Net-(D1-A)*%
X89485000Y-107185000D02*
X89450000Y-107150000D01*
X99700000Y-92362500D02*
X95812500Y-92362500D01*
X101712500Y-92362500D02*
X99700000Y-92362500D01*
X95250000Y-89600000D02*
X95750000Y-90100000D01*
X89508400Y-89600000D02*
X95250000Y-89600000D01*
X105742800Y-88332200D02*
X127285900Y-88332200D01*
X101712500Y-92362500D02*
X105742800Y-88332200D01*
X95750000Y-90100000D02*
X95750000Y-92300000D01*
X91525000Y-107185000D02*
X89485000Y-107185000D01*
%TO.N,/A21*%
X160448400Y-59532200D02*
X148988400Y-59532200D01*
X147848400Y-60672200D02*
X147848400Y-62689700D01*
X148988400Y-59532200D02*
X147848400Y-60672200D01*
%TO.N,/A22*%
X159178400Y-60132200D02*
X159038400Y-60132200D01*
X149118400Y-60962200D02*
X149118400Y-62689700D01*
X149928400Y-60152200D02*
X149118400Y-60962200D01*
X159018400Y-60152200D02*
X149928400Y-60152200D01*
X159038400Y-60132200D02*
X159018400Y-60152200D01*
%TO.N,Net-(D2-K)*%
X182842200Y-97042200D02*
X183200000Y-97400000D01*
X161658400Y-89402200D02*
X160588400Y-88332200D01*
X183200000Y-99100000D02*
X186148400Y-99100000D01*
X186148400Y-99100000D02*
X188450000Y-99100000D01*
X183200000Y-97400000D02*
X183200000Y-99100000D01*
X186110600Y-92700000D02*
X188850000Y-92700000D01*
X160588400Y-88332200D02*
X155710900Y-88332200D01*
X179798400Y-89402200D02*
X161658400Y-89402200D01*
X179758400Y-97042200D02*
X182842200Y-97042200D01*
X186098400Y-92712200D02*
X186110600Y-92700000D01*
%TO.N,Net-(D3-A)*%
X85650000Y-92900000D02*
X86250000Y-92300000D01*
X94085000Y-101400000D02*
X86350000Y-101400000D01*
X85650000Y-100700000D02*
X85650000Y-92900000D01*
X86350000Y-101400000D02*
X85650000Y-100700000D01*
X86250000Y-92300000D02*
X88100000Y-92300000D01*
%TO.N,Net-(JP1-A)*%
X88188400Y-77692200D02*
X87298400Y-76802200D01*
X87298400Y-76802200D02*
X87298400Y-73852200D01*
X87298400Y-73852200D02*
X88248400Y-72902200D01*
X89168400Y-77692200D02*
X88188400Y-77692200D01*
X88248400Y-72902200D02*
X89078400Y-72902200D01*
%TO.N,Net-(D2-A)*%
X183300000Y-89750000D02*
X186200000Y-89750000D01*
X186200000Y-89750000D02*
X186610000Y-90160000D01*
X186610000Y-90160000D02*
X188850000Y-90160000D01*
%TO.N,Net-(JP2-A)*%
X85998400Y-69902200D02*
X86998400Y-68902200D01*
X85998400Y-79602200D02*
X85998400Y-69902200D01*
X86998400Y-68902200D02*
X89078400Y-68902200D01*
X87738400Y-81342200D02*
X85998400Y-79602200D01*
X89128400Y-81342200D02*
X87738400Y-81342200D01*
%TO.N,/A23*%
X151658400Y-61512200D02*
X151658400Y-62689700D01*
X161720000Y-60772200D02*
X152398400Y-60772200D01*
X152398400Y-60772200D02*
X151658400Y-61512200D01*
%TO.N,/D15*%
X163500600Y-88592200D02*
X177358400Y-88592200D01*
X178450000Y-129962200D02*
X178425000Y-129987200D01*
X177358400Y-88592200D02*
X177408400Y-88542200D01*
X178446600Y-116597200D02*
X178450000Y-116600600D01*
X178425000Y-129987200D02*
X143583400Y-129987200D01*
X125926200Y-129650000D02*
X115900000Y-129650000D01*
X176670900Y-116597200D02*
X178446600Y-116597200D01*
X142738400Y-130832200D02*
X127108400Y-130832200D01*
X143583400Y-129987200D02*
X142738400Y-130832200D01*
X120819600Y-116442200D02*
X120822400Y-116445000D01*
X127108400Y-130832200D02*
X125926200Y-129650000D01*
X116257800Y-116442200D02*
X120819600Y-116442200D01*
%TO.N,/A3*%
X118540000Y-40060000D02*
X118540000Y-39120000D01*
X135148400Y-59192200D02*
X135148400Y-62689700D01*
X136063057Y-112092200D02*
X141233400Y-112092200D01*
X148395600Y-113905000D02*
X144944400Y-113905000D01*
X113100300Y-113925300D02*
X113781929Y-113243671D01*
X112188400Y-58287200D02*
X134243400Y-58287200D01*
X124258400Y-111992200D02*
X125001790Y-112735590D01*
X113781929Y-113243671D02*
X113781929Y-113242200D01*
X135419667Y-112735590D02*
X136063057Y-112092200D01*
X125001790Y-112735590D02*
X135419667Y-112735590D01*
X141233400Y-112092200D02*
X143046200Y-113905000D01*
X112188400Y-41432200D02*
X112198400Y-41422200D01*
X160483400Y-112787200D02*
X159713400Y-112017200D01*
X159713400Y-112017200D02*
X150283400Y-112017200D01*
X150283400Y-112017200D02*
X148395600Y-113905000D01*
X134243400Y-58287200D02*
X135148400Y-59192200D01*
X143046200Y-113905000D02*
X144944400Y-113905000D01*
X115031929Y-111992200D02*
X124258400Y-111992200D01*
X118538400Y-40061600D02*
X118540000Y-40060000D01*
X117288400Y-41422200D02*
X118538400Y-40172200D01*
X112198400Y-41422200D02*
X117288400Y-41422200D01*
X118538400Y-40172200D02*
X118538400Y-40061600D01*
X104625300Y-113925300D02*
X113100300Y-113925300D01*
X165545900Y-112787200D02*
X160483400Y-112787200D01*
X113781929Y-113242200D02*
X115031929Y-111992200D01*
%TO.N,/A4*%
X127345900Y-111492200D02*
X127370900Y-111467200D01*
X113533400Y-125067200D02*
X113558400Y-125092200D01*
X132608400Y-60002200D02*
X132608400Y-62689700D01*
X150318400Y-110692200D02*
X154258400Y-110692200D01*
X131758400Y-59152200D02*
X132608400Y-60002200D01*
X127370900Y-111467200D02*
X131899086Y-111467200D01*
X142336362Y-111317200D02*
X143654162Y-112635000D01*
X114748400Y-59152200D02*
X131758400Y-59152200D01*
X148375600Y-112635000D02*
X150318400Y-110692200D01*
X160958400Y-111517200D02*
X165545900Y-111517200D01*
X131899086Y-111467200D02*
X138224086Y-105142200D01*
X113558400Y-125092200D02*
X123058400Y-125092200D01*
X125608400Y-111492200D02*
X127345900Y-111492200D01*
X107601600Y-112642200D02*
X107594400Y-112635000D01*
X138224086Y-105142200D02*
X142333400Y-105142200D01*
X160133400Y-110692200D02*
X160958400Y-111517200D01*
X143654162Y-112635000D02*
X148375600Y-112635000D01*
X154258400Y-110692200D02*
X160133400Y-110692200D01*
X113533400Y-112642200D02*
X107601600Y-112642200D01*
%TO.N,/A6*%
X161133400Y-106917200D02*
X163193400Y-108977200D01*
X129658400Y-60802200D02*
X116000000Y-60802200D01*
X135806928Y-110842200D02*
X135750000Y-110899128D01*
X132933400Y-108927200D02*
X127370900Y-108927200D01*
X163193400Y-108977200D02*
X165545900Y-108977200D01*
X130068400Y-62689700D02*
X130068400Y-61212200D01*
X151933400Y-106917200D02*
X161133400Y-106917200D01*
X150938400Y-107912200D02*
X151933400Y-106917200D01*
X147158400Y-110092200D02*
X142208400Y-110092200D01*
X115375000Y-110092200D02*
X107597200Y-110092200D01*
X117628400Y-98342200D02*
X116578400Y-97292200D01*
X130068400Y-61212200D02*
X129658400Y-60802200D01*
X142208400Y-110092200D02*
X141458400Y-110842200D01*
X132338400Y-98342200D02*
X117628400Y-98342200D01*
X150938400Y-107912200D02*
X149338400Y-107912200D01*
X141458400Y-110842200D02*
X135806928Y-110842200D01*
X134008400Y-107852200D02*
X132933400Y-108927200D01*
X134008400Y-107842200D02*
X134008400Y-107852200D01*
X115400000Y-110067200D02*
X115375000Y-110092200D01*
X116578400Y-97292200D02*
X115400000Y-97292200D01*
X107597200Y-110092200D02*
X107594400Y-110095000D01*
X149338400Y-107912200D02*
X147158400Y-110092200D01*
%TO.N,/A7*%
X105950000Y-96632200D02*
X116778400Y-96632200D01*
X134833400Y-110042200D02*
X136583400Y-108292200D01*
X105957800Y-108825000D02*
X107594400Y-108825000D01*
X132438400Y-108252200D02*
X134148400Y-106542200D01*
X130118400Y-108252200D02*
X132438400Y-108252200D01*
X140233400Y-108292200D02*
X140766200Y-108825000D01*
X136583400Y-108292200D02*
X140233400Y-108292200D01*
X156108400Y-101717200D02*
X163133400Y-101717200D01*
X127875900Y-62689700D02*
X128798400Y-62689700D01*
X120398400Y-91550000D02*
X105950000Y-91550000D01*
X119298400Y-61562200D02*
X126748400Y-61562200D01*
X146225600Y-108825000D02*
X148478400Y-106572200D01*
X117888400Y-97742200D02*
X134808400Y-97742200D01*
X144944400Y-108825000D02*
X146225600Y-108825000D01*
X129523400Y-107657200D02*
X130118400Y-108252200D01*
X127370900Y-107657200D02*
X129523400Y-107657200D01*
X140766200Y-108825000D02*
X144944400Y-108825000D01*
X134148400Y-106542200D02*
X134808400Y-106542200D01*
X163150000Y-107707200D02*
X165545900Y-107707200D01*
X105950000Y-108817200D02*
X105957800Y-108825000D01*
X119248400Y-61612200D02*
X119298400Y-61562200D01*
X126748400Y-61562200D02*
X127875900Y-62689700D01*
X148478400Y-106572200D02*
X151253400Y-106572200D01*
X116778400Y-96632200D02*
X117888400Y-97742200D01*
X151253400Y-106572200D02*
X156108400Y-101717200D01*
%TO.N,/A2*%
X136398400Y-93802200D02*
X122098400Y-93802200D01*
X124023400Y-114007200D02*
X123308400Y-113292200D01*
X137158400Y-93042200D02*
X136398400Y-93802200D01*
X127370900Y-114007200D02*
X124023400Y-114007200D01*
X162983400Y-114567200D02*
X163493400Y-114057200D01*
X112208400Y-114492200D02*
X111525600Y-115175000D01*
X151548400Y-115192200D02*
X151523400Y-115167200D01*
X154183400Y-114567200D02*
X162983400Y-114567200D01*
X149998400Y-93042200D02*
X137158400Y-93042200D01*
X114308400Y-113292200D02*
X113108400Y-114492200D01*
X118098400Y-57502200D02*
X118108400Y-57492200D01*
X113108400Y-114492200D02*
X112208400Y-114492200D01*
X105350000Y-93417200D02*
X105350000Y-93483800D01*
X122098400Y-93802200D02*
X121713400Y-93417200D01*
X107586600Y-115167200D02*
X107594400Y-115175000D01*
X153598400Y-115152200D02*
X154183400Y-114567200D01*
X118108400Y-57492200D02*
X135558400Y-57492200D01*
X151588400Y-115152200D02*
X153598400Y-115152200D01*
X136418400Y-58352200D02*
X136418400Y-62689700D01*
X123308400Y-113292200D02*
X114308400Y-113292200D01*
X105350000Y-93417200D02*
X119358400Y-93417200D01*
X111525600Y-115175000D02*
X107594400Y-115175000D01*
X151523400Y-115167200D02*
X144952200Y-115167200D01*
X121713400Y-93417200D02*
X119358400Y-93417200D01*
X163493400Y-114057200D02*
X165545900Y-114057200D01*
X151548400Y-115192200D02*
X151588400Y-115152200D01*
X105407800Y-115167200D02*
X107586600Y-115167200D01*
X144952200Y-115167200D02*
X144944400Y-115175000D01*
X135558400Y-57492200D02*
X136418400Y-58352200D01*
X150008400Y-93052200D02*
X149998400Y-93042200D01*
%TO.N,/D14*%
X131458400Y-115717200D02*
X135680214Y-115717200D01*
X130033400Y-117142200D02*
X131458400Y-115717200D01*
X135680214Y-115717200D02*
X138325214Y-118362200D01*
X149813400Y-118362200D02*
X151133400Y-117042200D01*
X138325214Y-118362200D02*
X149813400Y-118362200D01*
X123792200Y-118392200D02*
X127008400Y-118392200D01*
X174108400Y-120492200D02*
X174918400Y-119682200D01*
X127008400Y-118392200D02*
X128258400Y-117142200D01*
X175968400Y-59562200D02*
X175930600Y-59600000D01*
X163808400Y-117317200D02*
X166983400Y-120492200D01*
X123117200Y-117717200D02*
X123792200Y-118392200D01*
X128258400Y-117142200D02*
X130033400Y-117142200D01*
X174918400Y-116702200D02*
X174908400Y-116692200D01*
X175930600Y-59600000D02*
X169380000Y-59600000D01*
X174918400Y-118354700D02*
X174918400Y-116702200D01*
X166983400Y-120492200D02*
X174108400Y-120492200D01*
X161708400Y-117042200D02*
X161983400Y-117317200D01*
X161983400Y-117317200D02*
X163808400Y-117317200D01*
X174918400Y-119682200D02*
X174918400Y-118354700D01*
X120822400Y-117715000D02*
X120824600Y-117717200D01*
X151133400Y-117042200D02*
X161708400Y-117042200D01*
X120824600Y-117717200D02*
X123117200Y-117717200D01*
X169380000Y-59600000D02*
X169340000Y-59560000D01*
%TO.N,/R_W*%
X135750000Y-101292200D02*
X136538400Y-101292200D01*
X158165200Y-106292200D02*
X158172400Y-106285000D01*
X156020000Y-100917200D02*
X163103400Y-100917200D01*
X144238400Y-57422200D02*
X170600000Y-57422200D01*
X142008400Y-100392200D02*
X143028400Y-99372200D01*
X174818400Y-102612200D02*
X173648400Y-103782200D01*
X154883400Y-106292200D02*
X158165200Y-106292200D01*
X137438400Y-100392200D02*
X142008400Y-100392200D01*
X114688400Y-49952200D02*
X114690600Y-49950000D01*
X165528400Y-98492200D02*
X174228400Y-98492200D01*
X110448400Y-49952200D02*
X114688400Y-49952200D01*
X113042714Y-105667200D02*
X113660514Y-106285000D01*
X135473400Y-104629700D02*
X135473400Y-103132200D01*
X133088400Y-101292200D02*
X132228400Y-102152200D01*
X135473400Y-103132200D02*
X135458400Y-103117200D01*
X123840600Y-106285000D02*
X120822400Y-106285000D01*
X142768400Y-91114700D02*
X142768400Y-89512200D01*
X132228400Y-102152200D02*
X127973400Y-102152200D01*
X154858400Y-106267200D02*
X154883400Y-106292200D01*
X127973400Y-102152200D02*
X123840600Y-106285000D01*
X114690600Y-49950000D02*
X144000000Y-49950000D01*
X144038400Y-57442200D02*
X144218400Y-57442200D01*
X120840200Y-106267200D02*
X120822400Y-106285000D01*
X142768400Y-89512200D02*
X143298400Y-88982200D01*
X145828400Y-99372200D02*
X144508400Y-99372200D01*
X154875000Y-97102200D02*
X148098400Y-97102200D01*
X163103400Y-100917200D02*
X165528400Y-98492200D01*
X173648400Y-103782200D02*
X173648400Y-104679700D01*
X143028400Y-99372200D02*
X144508400Y-99372200D01*
X136538400Y-101292200D02*
X137438400Y-100392200D01*
X148098400Y-97102200D02*
X145828400Y-99372200D01*
X102683400Y-105667200D02*
X113042714Y-105667200D01*
X174818400Y-99082200D02*
X174818400Y-102612200D01*
X135750000Y-101292200D02*
X133088400Y-101292200D01*
X113660514Y-106285000D02*
X120822400Y-106285000D01*
X154875000Y-102062200D02*
X156020000Y-100917200D01*
X144218400Y-57442200D02*
X144238400Y-57422200D01*
X174228400Y-98492200D02*
X174818400Y-99082200D01*
%TO.N,/D13*%
X167958400Y-119842200D02*
X173218400Y-119842200D01*
X117675600Y-119450000D02*
X115900000Y-119450000D01*
X127638400Y-130182200D02*
X126116200Y-128660000D01*
X143048400Y-129182200D02*
X142048400Y-130182200D01*
X173218400Y-119842200D02*
X173648400Y-119412200D01*
X120822400Y-118985000D02*
X118140600Y-118985000D01*
X167938400Y-129182200D02*
X143048400Y-129182200D01*
X118140600Y-118985000D02*
X117675600Y-119450000D01*
X173648400Y-119412200D02*
X173648400Y-118354700D01*
X142048400Y-130182200D02*
X127638400Y-130182200D01*
X126116200Y-128660000D02*
X115910000Y-128660000D01*
%TO.N,/~{LDS}*%
X131278400Y-46462200D02*
X131288400Y-46452200D01*
X146448400Y-47262200D02*
X173150000Y-47262200D01*
X129978400Y-88432200D02*
X131338400Y-89792200D01*
X131338400Y-89792200D02*
X131338400Y-91114700D01*
X145638400Y-46452200D02*
X146448400Y-47262200D01*
X131288400Y-46452200D02*
X145638400Y-46452200D01*
%TO.N,/D12*%
X127200000Y-126792200D02*
X127200000Y-126808800D01*
X166450000Y-126150000D02*
X172191200Y-126150000D01*
X172378400Y-118354700D02*
X172378400Y-116622200D01*
X166442200Y-126142200D02*
X166450000Y-126150000D01*
X127200000Y-126808800D02*
X128183400Y-127792200D01*
X123666200Y-121550000D02*
X122371200Y-120255000D01*
X172378400Y-116622200D02*
X172383400Y-116617200D01*
X166550000Y-53100000D02*
X174450000Y-53100000D01*
X128183400Y-127792200D02*
X140458400Y-127792200D01*
X127200000Y-121550000D02*
X123666200Y-121550000D01*
X172191200Y-126150000D02*
X172208400Y-126167200D01*
X140458400Y-127792200D02*
X142108400Y-126142200D01*
X142108400Y-126142200D02*
X166442200Y-126142200D01*
X122371200Y-120255000D02*
X120822400Y-120255000D01*
%TO.N,/~{UDS}*%
X143998400Y-52572200D02*
X133368400Y-52572200D01*
X133398400Y-89182200D02*
X133378400Y-89182200D01*
X178200000Y-56742200D02*
X148168400Y-56742200D01*
X148168400Y-56742200D02*
X143998400Y-52572200D01*
X133378400Y-89182200D02*
X132608400Y-89952200D01*
X132608400Y-89952200D02*
X132608400Y-91114700D01*
%TO.N,/D11*%
X120858400Y-122667200D02*
X120858400Y-121561000D01*
X171108400Y-116592200D02*
X171108400Y-118354700D01*
X142683400Y-126967200D02*
X171108400Y-126967200D01*
X141158400Y-128492200D02*
X142683400Y-126967200D01*
X127608400Y-128492200D02*
X141158400Y-128492200D01*
X120858400Y-126642200D02*
X125758400Y-126642200D01*
X125758400Y-126642200D02*
X127608400Y-128492200D01*
X120858400Y-121561000D02*
X120822400Y-121525000D01*
%TO.N,/~{AS}*%
X133878400Y-91114700D02*
X133999400Y-90993700D01*
X129698400Y-86992200D02*
X129698400Y-85562200D01*
X133999400Y-90993700D02*
X133999400Y-88683200D01*
X129698400Y-85562200D02*
X133048400Y-82212200D01*
X133368400Y-88052200D02*
X130758400Y-88052200D01*
X150268400Y-41832200D02*
X176787800Y-41832200D01*
X150258400Y-41822200D02*
X150268400Y-41832200D01*
X130758400Y-88052200D02*
X129698400Y-86992200D01*
X133048400Y-82212200D02*
X147468400Y-82212200D01*
X176787800Y-41832200D02*
X179500000Y-39120000D01*
X133999400Y-88683200D02*
X133368400Y-88052200D01*
%TO.N,/D3*%
X183138400Y-47472200D02*
X183210600Y-47400000D01*
X180958400Y-121692200D02*
X178608400Y-124042200D01*
X171058400Y-84662200D02*
X172138400Y-85742200D01*
X171058400Y-78849700D02*
X171058400Y-84662200D01*
X162141200Y-121525000D02*
X158172400Y-121525000D01*
X169898400Y-78489700D02*
X170698400Y-78489700D01*
X139708400Y-126617200D02*
X142333400Y-123992200D01*
X132933400Y-126592200D02*
X132958400Y-126617200D01*
X172138400Y-85742200D02*
X183100000Y-85742200D01*
X164658400Y-124042200D02*
X162141200Y-121525000D01*
X142333400Y-123992200D02*
X151833400Y-123992200D01*
X154300600Y-121525000D02*
X158172400Y-121525000D01*
X180958400Y-121650000D02*
X180958400Y-121692200D01*
X178608400Y-124042200D02*
X164658400Y-124042200D01*
X188950000Y-47400000D02*
X189660000Y-46690000D01*
X183210600Y-47400000D02*
X188950000Y-47400000D01*
X189660000Y-46690000D02*
X189660000Y-44200000D01*
X132933400Y-118304700D02*
X132933400Y-116717200D01*
X158172400Y-121525000D02*
X158047400Y-121650000D01*
X132958400Y-126617200D02*
X139708400Y-126617200D01*
X151833400Y-123992200D02*
X154300600Y-121525000D01*
X170698400Y-78489700D02*
X171058400Y-78849700D01*
%TO.N,/D10*%
X110171200Y-120255000D02*
X107594400Y-120255000D01*
X110785000Y-120868800D02*
X110171200Y-120255000D01*
X183350000Y-46250000D02*
X183400000Y-46200000D01*
X147168400Y-50852200D02*
X147248400Y-50932200D01*
X130408400Y-125592200D02*
X129083400Y-124267200D01*
X168583400Y-118339700D02*
X168568400Y-118354700D01*
X147348100Y-46301900D02*
X147400000Y-46250000D01*
X131778400Y-50842200D02*
X131788400Y-50852200D01*
X112267200Y-124267200D02*
X110785000Y-122785000D01*
X147400000Y-46250000D02*
X183350000Y-46250000D01*
X168558400Y-124742200D02*
X168583400Y-124767200D01*
X168583400Y-124767200D02*
X168583400Y-124817200D01*
X142458400Y-124742200D02*
X168558400Y-124742200D01*
X168583400Y-124817200D02*
X168633400Y-124867200D01*
X110785000Y-122785000D02*
X110785000Y-120868800D01*
X168583400Y-116692200D02*
X168583400Y-118339700D01*
X129083400Y-124267200D02*
X112267200Y-124267200D01*
X130408400Y-125592200D02*
X132083400Y-127267200D01*
X132083400Y-127267200D02*
X139933400Y-127267200D01*
X131788400Y-50852200D02*
X147168400Y-50852200D01*
X139933400Y-127267200D02*
X142458400Y-124742200D01*
%TO.N,/D8*%
X109531200Y-117715000D02*
X107594400Y-117715000D01*
X110158400Y-118342200D02*
X109531200Y-117715000D01*
X136333400Y-122542200D02*
X131608400Y-122542200D01*
X163783400Y-116592200D02*
X165540900Y-116592200D01*
X185037800Y-42612200D02*
X187120000Y-40530000D01*
X150058400Y-120892200D02*
X140408400Y-120892200D01*
X122942200Y-118342200D02*
X110158400Y-118342200D01*
X137600000Y-43480600D02*
X137608400Y-43472200D01*
X124867200Y-120267200D02*
X122942200Y-118342200D01*
X140408400Y-120892200D02*
X138758400Y-122542200D01*
X138088400Y-42612200D02*
X185037800Y-42612200D01*
X165540900Y-116592200D02*
X165545900Y-116597200D01*
X163808400Y-119217200D02*
X162958400Y-118367200D01*
X152583400Y-118367200D02*
X150058400Y-120892200D01*
X129333400Y-120267200D02*
X124867200Y-120267200D01*
X138758400Y-122542200D02*
X136333400Y-122542200D01*
X137183400Y-45717200D02*
X137600000Y-45300600D01*
X187120000Y-40530000D02*
X187120000Y-39120000D01*
X137608400Y-43472200D02*
X137608400Y-43092200D01*
X137608400Y-43092200D02*
X138088400Y-42612200D01*
X137600000Y-45300600D02*
X137600000Y-43480600D01*
X162958400Y-118367200D02*
X152583400Y-118367200D01*
X131608400Y-122542200D02*
X129333400Y-120267200D01*
X136733400Y-45717200D02*
X137183400Y-45717200D01*
%TO.N,/D0*%
X129653400Y-116547200D02*
X127370900Y-116547200D01*
X144944400Y-117715000D02*
X138243700Y-117715000D01*
X141368400Y-129382200D02*
X142548400Y-128202200D01*
X175615900Y-72892200D02*
X182040000Y-72892200D01*
X137688400Y-88812200D02*
X137688400Y-91114700D01*
X138243700Y-117715000D02*
X135695900Y-115167200D01*
X129698400Y-129382200D02*
X141368400Y-129382200D01*
X144946600Y-117717200D02*
X144944400Y-117715000D01*
X130865600Y-86725000D02*
X138531200Y-86725000D01*
X131033400Y-115167200D02*
X129653400Y-116547200D01*
X138531200Y-86725000D02*
X138828400Y-87022200D01*
X175098400Y-73409700D02*
X175615900Y-72892200D01*
X162848400Y-86342200D02*
X182042200Y-86342200D01*
X138828400Y-87672200D02*
X137688400Y-88812200D01*
X130848400Y-86742200D02*
X130865600Y-86725000D01*
X182042200Y-86342200D02*
X182050000Y-86350000D01*
X142548400Y-128202200D02*
X161378400Y-128202200D01*
X135695900Y-115167200D02*
X131033400Y-115167200D01*
X138828400Y-87022200D02*
X138828400Y-87672200D01*
%TO.N,/D4*%
X192200000Y-44200000D02*
X192200000Y-58450000D01*
X191600000Y-59050000D02*
X178300000Y-59050000D01*
X178772800Y-122502200D02*
X180275000Y-121000000D01*
X153658400Y-120267200D02*
X162883400Y-120267200D01*
X178300000Y-68702200D02*
X176898400Y-68702200D01*
X165118400Y-122502200D02*
X178772800Y-122502200D01*
X134315600Y-125110000D02*
X139040600Y-125110000D01*
X176898400Y-68702200D02*
X172190900Y-73409700D01*
X139040600Y-125110000D02*
X141233400Y-122917200D01*
X162883400Y-120267200D02*
X165118400Y-122502200D01*
X134208400Y-118299700D02*
X134203400Y-118304700D01*
X192200000Y-58450000D02*
X191600000Y-59050000D01*
X172190900Y-73409700D02*
X169898400Y-73409700D01*
X151008400Y-122917200D02*
X153658400Y-120267200D01*
X141233400Y-122917200D02*
X151008400Y-122917200D01*
X134208400Y-116717200D02*
X134208400Y-118299700D01*
X134233400Y-125192200D02*
X134315600Y-125110000D01*
%TO.N,/D9*%
X112592200Y-123542200D02*
X111900000Y-122850000D01*
X167358400Y-116767200D02*
X167358400Y-118294700D01*
X148598400Y-56132200D02*
X185850000Y-56132200D01*
X133858400Y-125917200D02*
X139358400Y-125917200D01*
X153883400Y-120892200D02*
X162458400Y-120892200D01*
X167358400Y-118294700D02*
X167298400Y-118354700D01*
X111435000Y-118985000D02*
X107594400Y-118985000D01*
X165008400Y-123442200D02*
X167358400Y-123442200D01*
X128958400Y-123542200D02*
X131483400Y-123542200D01*
X129948400Y-51642200D02*
X144108400Y-51642200D01*
X128958400Y-123542200D02*
X112592200Y-123542200D01*
X167358400Y-123442200D02*
X167408400Y-123442200D01*
X131483400Y-123542200D02*
X133858400Y-125917200D01*
X111900000Y-122850000D02*
X111900000Y-119450000D01*
X141808400Y-123467200D02*
X151308400Y-123467200D01*
X139358400Y-125917200D02*
X141808400Y-123467200D01*
X162458400Y-120892200D02*
X165008400Y-123442200D01*
X151308400Y-123467200D02*
X153883400Y-120892200D01*
X111900000Y-119450000D02*
X111435000Y-118985000D01*
X144108400Y-51642200D02*
X148598400Y-56132200D01*
%TO.N,/D2*%
X138608400Y-121592200D02*
X131708400Y-121592200D01*
X142783400Y-125392200D02*
X142808400Y-125367200D01*
X179042200Y-94817200D02*
X177700000Y-93475000D01*
X142783400Y-120292200D02*
X139908400Y-120292200D01*
X172255900Y-74044700D02*
X169898400Y-74044700D01*
X177700000Y-93475000D02*
X171450000Y-93475000D01*
X186975000Y-95350000D02*
X185416200Y-95350000D01*
X187000000Y-69342200D02*
X176958400Y-69342200D01*
X142808400Y-120267200D02*
X144932200Y-120267200D01*
X170458400Y-125367200D02*
X170483400Y-125392200D01*
X142783400Y-120292200D02*
X142808400Y-120267200D01*
X131708400Y-121592200D02*
X130393400Y-120277200D01*
X185416200Y-95350000D02*
X184883400Y-94817200D01*
X142808400Y-125367200D02*
X170458400Y-125367200D01*
X176958400Y-69342200D02*
X172255900Y-74044700D01*
X144932200Y-120267200D02*
X144944400Y-120255000D01*
X130393400Y-120277200D02*
X130393400Y-118304700D01*
X139908400Y-120292200D02*
X138608400Y-121592200D01*
X184883400Y-94817200D02*
X179042200Y-94817200D01*
X187000000Y-95375000D02*
X186975000Y-95350000D01*
%TO.N,/D7*%
X169898400Y-75949700D02*
X165863400Y-75949700D01*
X193500000Y-59300000D02*
X193500000Y-41755000D01*
X165978400Y-60432200D02*
X166008400Y-60462200D01*
X177230600Y-59700000D02*
X193100000Y-59700000D01*
X138495900Y-116547200D02*
X141013400Y-116547200D01*
X193100000Y-59700000D02*
X193500000Y-59300000D01*
X193500000Y-41755000D02*
X193095000Y-41350000D01*
X189660000Y-41110000D02*
X189660000Y-39120000D01*
X165798400Y-60432200D02*
X165978400Y-60432200D01*
X141013400Y-116547200D02*
X141533400Y-117067200D01*
X166008400Y-60462200D02*
X176468400Y-60462200D01*
X150258400Y-116442200D02*
X159657800Y-116442200D01*
X159657800Y-116442200D02*
X160132800Y-115967200D01*
X176468400Y-60462200D02*
X177230600Y-59700000D01*
X141533400Y-117067200D02*
X149633400Y-117067200D01*
X165863400Y-75949700D02*
X165798400Y-75884700D01*
X149633400Y-117067200D02*
X150258400Y-116442200D01*
X160132800Y-115967200D02*
X162228400Y-115967200D01*
X193095000Y-41350000D02*
X189900000Y-41350000D01*
X189900000Y-41350000D02*
X189660000Y-41110000D01*
%TO.N,/D6*%
X172437400Y-85141200D02*
X185169000Y-85141200D01*
X185169000Y-85141200D02*
X185180000Y-85152200D01*
X170710900Y-77854700D02*
X171538400Y-78682200D01*
X185950000Y-57750000D02*
X189800000Y-57750000D01*
X166833400Y-121242200D02*
X163358400Y-117767200D01*
X175558400Y-121242200D02*
X166833400Y-121242200D01*
X163358400Y-117767200D02*
X151800000Y-117767200D01*
X181083400Y-115717200D02*
X175558400Y-121242200D01*
X185900000Y-57800000D02*
X185950000Y-57750000D01*
X183333400Y-115717200D02*
X181083400Y-115717200D01*
X149975000Y-119592200D02*
X138030900Y-119592200D01*
X169898400Y-77854700D02*
X170710900Y-77854700D01*
X151800000Y-117767200D02*
X149975000Y-119592200D01*
X171538400Y-78682200D02*
X171538400Y-84242200D01*
X138030900Y-119592200D02*
X136743400Y-118304700D01*
X171538400Y-84242200D02*
X172437400Y-85141200D01*
%TO.N,/D1*%
X184400000Y-95922200D02*
X179178400Y-95922200D01*
X138698400Y-94402200D02*
X145668400Y-94402200D01*
X177658400Y-94402200D02*
X145698400Y-94402200D01*
X127505056Y-119402200D02*
X128602556Y-118304700D01*
X184550000Y-95942200D02*
X184540000Y-95932200D01*
X184540000Y-95932200D02*
X184410000Y-95932200D01*
X184410000Y-95932200D02*
X184400000Y-95922200D01*
X145668400Y-94402200D02*
X145683400Y-94417200D01*
X147951200Y-118985000D02*
X147958400Y-118992200D01*
X138198400Y-94902200D02*
X138698400Y-94402200D01*
X128602556Y-118304700D02*
X129123400Y-118304700D01*
X138958400Y-89262200D02*
X138958400Y-91114700D01*
X184540000Y-69952200D02*
X184550000Y-69942200D01*
X171785900Y-75314700D02*
X177148400Y-69952200D01*
X145698400Y-94402200D02*
X145683400Y-94417200D01*
X138698400Y-89002200D02*
X138958400Y-89262200D01*
X169898400Y-75314700D02*
X171785900Y-75314700D01*
X144937200Y-118992200D02*
X144944400Y-118985000D01*
X179178400Y-95922200D02*
X177658400Y-94402200D01*
X144944400Y-118985000D02*
X147951200Y-118985000D01*
X177148400Y-69952200D02*
X184540000Y-69952200D01*
X127498400Y-94902200D02*
X138198400Y-94902200D01*
%TO.N,/D5*%
X140702800Y-122367200D02*
X138877800Y-124192200D01*
X181308400Y-116602200D02*
X176028400Y-121882200D01*
X135458400Y-118289700D02*
X135473400Y-118304700D01*
X181408400Y-94342200D02*
X180038400Y-92972200D01*
X177338400Y-61092200D02*
X178118400Y-60312200D01*
X179128400Y-90492200D02*
X168178400Y-90492200D01*
X169898400Y-77219700D02*
X168163400Y-77219700D01*
X188078400Y-116602200D02*
X181308400Y-116602200D01*
X168163400Y-77219700D02*
X168098400Y-77284700D01*
X196000000Y-41400000D02*
X195300000Y-41400000D01*
X153832800Y-119017200D02*
X150482800Y-122367200D01*
X190848400Y-113832200D02*
X188078400Y-116602200D01*
X180038400Y-92972200D02*
X180038400Y-91402200D01*
X150482800Y-122367200D02*
X140702800Y-122367200D01*
X195568400Y-60312200D02*
X196450000Y-59430600D01*
X195300000Y-41400000D02*
X194740000Y-40840000D01*
X168098400Y-61092200D02*
X177338400Y-61092200D01*
X196450000Y-59430600D02*
X196450000Y-41850000D01*
X135458400Y-116717200D02*
X135458400Y-118289700D01*
X162483400Y-119017200D02*
X153832800Y-119017200D01*
X190818400Y-94342200D02*
X181408400Y-94342200D01*
X194740000Y-40840000D02*
X194740000Y-39120000D01*
X176028400Y-121882200D02*
X165348400Y-121882200D01*
X165348400Y-121882200D02*
X162483400Y-119017200D01*
X196450000Y-41850000D02*
X196000000Y-41400000D01*
X190848400Y-94372200D02*
X190818400Y-94342200D01*
X180038400Y-91402200D02*
X179128400Y-90492200D01*
X138877800Y-124192200D02*
X135458400Y-124192200D01*
X178118400Y-60312200D02*
X195568400Y-60312200D01*
%TO.N,Net-(U7-USBDM)*%
X175898400Y-79759700D02*
X177128400Y-78529700D01*
X177128400Y-78529700D02*
X177128400Y-78502200D01*
X177158400Y-71392200D02*
X177168400Y-71402200D01*
X175098400Y-79759700D02*
X175898400Y-79759700D01*
X177168400Y-71402200D02*
X179948400Y-71402200D01*
%TO.N,Net-(U7-USBDP)*%
X175098400Y-80394700D02*
X176095900Y-80394700D01*
X176095900Y-80394700D02*
X179088400Y-77402200D01*
X179088400Y-77402200D02*
X179948400Y-77402200D01*
%TO.N,Net-(JP2-C)*%
X91668400Y-84772200D02*
X93958400Y-87062200D01*
X93958400Y-87062200D02*
X127285900Y-87062200D01*
X91668400Y-81342200D02*
X91668400Y-84772200D01*
%TO.N,Net-(U1-I{slash}O_35)*%
X151060000Y-84473800D02*
X151658400Y-85072200D01*
X138510900Y-115292200D02*
X138495900Y-115277200D01*
X137150000Y-84473800D02*
X151060000Y-84473800D01*
X151658400Y-85072200D02*
X151658400Y-91114700D01*
X140183400Y-115292200D02*
X138510900Y-115292200D01*
%TO.N,Net-(U1-I{slash}O_37)*%
X154783400Y-115167200D02*
X158164600Y-115167200D01*
X158164600Y-115167200D02*
X158172400Y-115175000D01*
X157768400Y-89602200D02*
X155710900Y-89602200D01*
%TO.N,Net-(U1-I{slash}O_36)*%
X170050000Y-91172200D02*
X169428400Y-91172200D01*
X173188400Y-114302200D02*
X174213400Y-115327200D01*
X152928400Y-92502200D02*
X152928400Y-91114700D01*
X153717400Y-93291200D02*
X152928400Y-92502200D01*
X169428400Y-91172200D02*
X167309400Y-93291200D01*
X170050000Y-114302200D02*
X173188400Y-114302200D01*
X167309400Y-93291200D02*
X153717400Y-93291200D01*
X174213400Y-115327200D02*
X176670900Y-115327200D01*
%TO.N,/DP*%
X183060900Y-77414700D02*
X183048400Y-77402200D01*
X203898400Y-82427200D02*
X203898400Y-82852200D01*
X203898400Y-82852200D02*
X203613400Y-83137200D01*
X203613400Y-83137200D02*
X202322000Y-83137200D01*
X187158400Y-82137200D02*
X202322000Y-82137200D01*
X183298400Y-77152200D02*
X183048400Y-77402200D01*
X203608400Y-82137200D02*
X203898400Y-82427200D01*
X185423400Y-80402200D02*
X187158400Y-82137200D01*
X183060900Y-80402200D02*
X183060900Y-77414700D01*
X202322000Y-82137200D02*
X203608400Y-82137200D01*
X183060900Y-80402200D02*
X185423400Y-80402200D01*
%TO.N,/DN*%
X185948400Y-74392200D02*
X185938400Y-74402200D01*
X202322000Y-83637200D02*
X196283400Y-83637200D01*
X183048400Y-71402200D02*
X183048400Y-74389700D01*
X202307000Y-82652200D02*
X202322000Y-82637200D01*
X196283400Y-83637200D02*
X195823400Y-83177200D01*
X185988400Y-82652200D02*
X195823400Y-82652200D01*
X183048400Y-74389700D02*
X183060900Y-74402200D01*
X195823400Y-83177200D02*
X195823400Y-82652200D01*
X185938400Y-74402200D02*
X183060900Y-74402200D01*
X195823400Y-82652200D02*
X202307000Y-82652200D01*
%TO.N,/FT_TXE*%
X158638400Y-78262200D02*
X158548400Y-78172200D01*
X173658400Y-87112200D02*
X158638400Y-87112200D01*
X173683500Y-75949700D02*
X173681000Y-75952200D01*
X175098400Y-75949700D02*
X173683500Y-75949700D01*
X173668400Y-87102200D02*
X173658400Y-87112200D01*
X158548400Y-78172200D02*
X155710900Y-78172200D01*
%TO.N,/FT_SIWU*%
X161520900Y-79124700D02*
X169898400Y-79124700D01*
X155710900Y-75632200D02*
X158028400Y-75632200D01*
X158028400Y-75632200D02*
X161520900Y-79124700D01*
%TO.N,/FT_WR*%
X155710900Y-80712200D02*
X160888400Y-80712200D01*
X160888400Y-80712200D02*
X161205900Y-80394700D01*
X161205900Y-80394700D02*
X169898400Y-80394700D01*
%TO.N,/FT_RD*%
X155710900Y-79442200D02*
X160818400Y-79442200D01*
X161135900Y-79759700D02*
X169898400Y-79759700D01*
X160818400Y-79442200D02*
X161135900Y-79759700D01*
%TO.N,/FT_RXF*%
X157598400Y-76902200D02*
X155710900Y-76902200D01*
X173078400Y-75314700D02*
X175098400Y-75314700D01*
X172378400Y-87772200D02*
X157638400Y-87772200D01*
X157638400Y-87772200D02*
X157598400Y-87732200D01*
%TO.N,Net-(U1-I{slash}O_22)*%
X128798400Y-91114700D02*
X128469900Y-91443200D01*
X91950000Y-97400000D02*
X91950000Y-95400000D01*
X91950000Y-94500000D02*
X91950000Y-95400000D01*
X101640600Y-94150000D02*
X92300000Y-94150000D01*
X91000000Y-97700000D02*
X91650000Y-97700000D01*
X91650000Y-97700000D02*
X91950000Y-97400000D01*
X106078400Y-89712200D02*
X101640600Y-94150000D01*
X128469900Y-91443200D02*
X124359400Y-91443200D01*
X122628400Y-89712200D02*
X106078400Y-89712200D01*
X92300000Y-94150000D02*
X91950000Y-94500000D01*
X90600000Y-98100000D02*
X91000000Y-97700000D01*
X124359400Y-91443200D02*
X122628400Y-89712200D01*
%TO.N,Net-(U1-I{slash}O_23)*%
X122598400Y-93202200D02*
X121927400Y-92531200D01*
X112758400Y-115792200D02*
X117658400Y-115792200D01*
X117658400Y-115792200D02*
X118283400Y-115167200D01*
X129398400Y-93202200D02*
X122598400Y-93202200D01*
X120814600Y-115167200D02*
X120822400Y-115175000D01*
X130068400Y-92532200D02*
X129398400Y-93202200D01*
X121927400Y-92531200D02*
X112711000Y-92531200D01*
X130068400Y-91114700D02*
X130068400Y-92532200D01*
X112711000Y-92531200D02*
X112700000Y-92542200D01*
X118283400Y-115167200D02*
X120814600Y-115167200D01*
%TO.N,Net-(J1-PadB5)*%
X188258400Y-69032200D02*
X187128400Y-67902200D01*
X202322000Y-81137200D02*
X189823400Y-81137200D01*
X189823400Y-81137200D02*
X188258400Y-79572200D01*
X187128400Y-67902200D02*
X183048400Y-67902200D01*
X188258400Y-79572200D02*
X188258400Y-69032200D01*
%TO.N,Net-(J1-PadA5)*%
X183283400Y-84137200D02*
X183048400Y-83902200D01*
X202322000Y-84137200D02*
X183283400Y-84137200D01*
%TO.N,unconnected-(U1-I{slash}O_54-Pad76)*%
X152800000Y-63350000D02*
X152850000Y-63400000D01*
%TD*%
M02*
