M48
; DRILL file {KiCad 9.0.1-9.0.1-0~ubuntu22.04.1} date 2025-10-31T16:35:47+0000
; FORMAT={-:-/ absolute / metric / decimal}
; #@! TF.CreationDate,2025-10-31T16:35:47+00:00
; #@! TF.GenerationSoftware,Kicad,Pcbnew,9.0.1-9.0.1-0~ubuntu22.04.1
; #@! TF.FileFunction,Plated,1,4,PTH
FMAT,2
METRIC
; #@! TA.AperFunction,Plated,PTH,ViaDrill
T1C0.300
; #@! TA.AperFunction,Plated,PTH,ComponentDrill
T2C0.650
; #@! TA.AperFunction,Plated,PTH,ComponentDrill
T3C0.800
; #@! TA.AperFunction,Plated,PTH,ComponentDrill
T4C0.900
; #@! TA.AperFunction,Plated,PTH,ComponentDrill
T5C1.000
; #@! TA.AperFunction,Plated,PTH,ComponentDrill
T6C1.090
; #@! TA.AperFunction,Plated,PTH,ComponentDrill
T7C1.200
; #@! TA.AperFunction,Plated,PTH,ComponentDrill
T8C3.050
%
G90
G05
T1
X89.198Y-48.602
X89.298Y-108.402
X89.45Y-107.15
X89.508Y-89.6
X90.05Y-93.802
X90.6Y-98.1
X92.178Y-70.852
X92.498Y-48.602
X93.4Y-105.9
X93.598Y-104.602
X94.0Y-107.8
X98.598Y-104.602
X101.7Y-109.7
X102.398Y-113.202
X102.683Y-105.667
X103.691Y-102.475
X104.625Y-113.925
X105.35Y-93.417
X105.398Y-121.502
X105.408Y-115.167
X105.95Y-91.55
X105.95Y-96.632
X105.95Y-108.817
X108.378Y-55.412
X108.998Y-99.702
X110.083Y-95.792
X110.136Y-103.745
X110.448Y-49.952
X111.058Y-95.982
X111.058Y-107.542
X111.378Y-79.482
X111.868Y-95.112
X111.9Y-106.267
X112.188Y-41.432
X112.188Y-58.282
X112.7Y-92.542
X112.758Y-115.792
X113.458Y-111.367
X113.46Y-59.942
X113.46Y-106.912
X113.533Y-112.642
X113.533Y-125.067
X114.748Y-59.152
X114.826Y-113.929
X115.4Y-97.292
X115.4Y-110.067
X115.9Y-119.45
X115.9Y-129.65
X115.91Y-128.66
X116.0Y-60.802
X116.001Y-130.599
X116.258Y-116.442
X117.038Y-62.512
X117.05Y-95.902
X117.098Y-101.602
X117.108Y-117.617
X117.295Y-108.817
X117.858Y-103.745
X118.098Y-57.502
X118.408Y-109.517
X119.248Y-61.612
X119.358Y-93.417
X119.598Y-95.602
X119.898Y-65.502
X119.898Y-82.002
X120.398Y-91.55
X120.858Y-122.667
X120.858Y-126.642
X121.298Y-56.742
X122.198Y-68.702
X122.918Y-83.222
X123.058Y-125.092
X123.233Y-102.492
X123.298Y-97.067
X123.508Y-105.015
X123.978Y-80.772
X124.598Y-68.012
X124.608Y-109.597
X125.498Y-84.522
X125.608Y-111.492
X126.698Y-100.002
X127.2Y-121.55
X127.2Y-126.792
X127.498Y-94.902
X127.505Y-119.402
X127.668Y-90.842
X128.208Y-96.4
X128.225Y-104.642
X128.958Y-123.542
X129.683Y-116.542
X129.698Y-82.002
X129.698Y-129.382
X129.738Y-73.102
X129.948Y-51.642
X129.978Y-88.432
X129.998Y-65.502
X130.0Y-49.1
X130.408Y-125.592
X130.848Y-86.742
X131.048Y-106.512
X131.058Y-95.602
X131.058Y-112.136
X131.278Y-46.462
X131.683Y-116.642
X131.778Y-50.842
X131.898Y-107.612
X132.338Y-98.342
X132.5Y-70.552
X132.933Y-116.717
X132.933Y-126.592
X133.198Y-100.002
X133.233Y-111.268
X133.368Y-52.572
X133.398Y-89.182
X134.008Y-107.842
X134.198Y-103.162
X134.208Y-116.717
X134.233Y-125.192
X134.268Y-65.192
X134.278Y-88.042
X134.318Y-47.982
X134.338Y-85.772
X134.808Y-97.742
X134.808Y-106.542
X134.833Y-110.042
X135.15Y-76.902
X135.15Y-95.602
X135.458Y-103.117
X135.458Y-116.717
X135.458Y-124.192
X135.75Y-71.822
X135.75Y-96.4
X135.75Y-101.292
X135.75Y-110.899
X136.333Y-122.542
X136.733Y-45.717
X136.878Y-55.472
X137.15Y-84.474
X137.488Y-83.622
X137.658Y-68.112
X137.948Y-87.562
X138.518Y-102.382
X138.698Y-89.002
X138.698Y-94.402
X138.958Y-64.862
X139.548Y-101.542
X139.8Y-74.372
X140.183Y-115.292
X140.238Y-89.282
X140.358Y-112.742
X140.433Y-107.667
X140.458Y-85.102
X140.458Y-87.942
X141.108Y-110.192
X141.158Y-104.392
X141.383Y-75.632
X141.398Y-98.502
X141.733Y-114.007
X142.333Y-105.142
X142.336Y-111.317
X142.4Y-49.1
X142.4Y-69.282
X142.7Y-47.15
X142.783Y-120.292
X142.783Y-125.392
X143.183Y-107.567
X143.198Y-95.792
X143.268Y-58.182
X143.268Y-76.912
X143.298Y-88.982
X144.0Y-49.95
X144.038Y-57.442
X144.118Y-68.102
X144.508Y-99.372
X144.798Y-55.152
X144.938Y-79.452
X145.328Y-64.842
X145.348Y-89.292
X145.683Y-94.417
X146.48Y-78.152
X146.578Y-89.242
X147.026Y-121.525
X147.083Y-96.502
X147.083Y-105.017
X147.248Y-50.932
X147.348Y-46.302
X147.468Y-82.212
X147.688Y-106.282
X147.8Y-102.467
X147.958Y-118.992
X148.383Y-95.132
X148.518Y-80.752
X148.728Y-103.745
X148.868Y-107.352
X148.868Y-109.912
X149.228Y-93.692
X149.928Y-101.532
X150.008Y-93.052
X150.258Y-41.822
X150.388Y-64.922
X150.473Y-85.397
X150.983Y-86.657
X151.548Y-115.162
X151.598Y-99.702
X152.098Y-54.8
X152.275Y-104.392
X152.358Y-110.092
X152.698Y-102.402
X153.328Y-83.252
X153.558Y-74.362
X153.608Y-107.542
X153.638Y-66.742
X154.15Y-49.05
X154.258Y-110.692
X154.783Y-115.167
X154.858Y-106.267
X154.875Y-97.102
X154.875Y-102.062
X155.219Y-48.152
X155.598Y-91.115
X156.128Y-105.052
X156.35Y-102.517
X156.65Y-51.7
X157.598Y-76.902
X157.598Y-87.732
X157.768Y-89.602
X157.9Y-58.842
X158.638Y-78.172
X158.638Y-87.112
X159.178Y-60.132
X159.998Y-97.902
X160.448Y-59.532
X161.033Y-109.417
X161.183Y-95.812
X161.378Y-128.202
X161.72Y-60.772
X162.228Y-115.967
X162.258Y-106.442
X162.438Y-82.042
X162.848Y-86.342
X163.133Y-101.742
X163.15Y-107.707
X163.501Y-88.592
X163.598Y-91.102
X163.783Y-116.592
X163.808Y-119.217
X163.898Y-74.402
X165.798Y-60.432
X165.798Y-75.885
X166.45Y-126.15
X166.55Y-53.1
X167.258Y-106.067
X167.268Y-95.172
X167.348Y-58.112
X167.358Y-116.767
X167.358Y-123.442
X167.938Y-129.182
X167.958Y-119.842
X167.978Y-102.342
X168.098Y-61.092
X168.098Y-77.285
X168.178Y-90.492
X168.583Y-116.692
X168.583Y-124.767
X169.34Y-59.56
X169.438Y-102.252
X169.833Y-116.667
X170.05Y-91.172
X170.05Y-114.302
X170.483Y-125.392
X170.6Y-57.422
X171.108Y-116.592
X171.108Y-126.967
X171.228Y-74.672
X171.45Y-93.475
X171.848Y-77.892
X172.208Y-126.167
X172.333Y-102.222
X172.378Y-87.772
X172.383Y-116.617
X173.078Y-75.315
X173.15Y-47.262
X173.668Y-87.102
X173.681Y-75.952
X174.45Y-53.1
X174.883Y-112.787
X174.908Y-116.692
X175.558Y-97.981
X175.968Y-59.562
X177.128Y-78.502
X177.158Y-71.392
X177.408Y-88.542
X177.968Y-77.192
X178.2Y-56.742
X178.3Y-59.05
X178.3Y-68.702
X178.45Y-116.601
X178.45Y-129.962
X179.025Y-92.092
X179.025Y-108.307
X179.441Y-130.634
X179.558Y-114.092
X179.758Y-97.042
X179.798Y-89.402
X179.936Y-82.152
X180.275Y-121.0
X180.958Y-121.65
X181.298Y-109.302
X181.398Y-67.902
X181.4Y-92.85
X181.4Y-102.2
X181.438Y-74.392
X182.04Y-72.892
X182.05Y-86.35
X183.1Y-85.742
X183.138Y-47.472
X183.333Y-115.717
X183.4Y-46.2
X184.55Y-69.942
X184.55Y-95.942
X185.18Y-85.152
X185.85Y-56.132
X185.9Y-57.8
X185.988Y-74.392
X185.988Y-82.652
X186.098Y-92.712
X186.148Y-99.1
X187.0Y-69.342
X187.0Y-95.375
X189.8Y-57.75
X190.848Y-94.372
X190.848Y-113.832
X196.548Y-87.977
X196.698Y-77.777
T2
X203.397Y-79.997
X203.397Y-85.777
T3
X87.45Y-87.65
X89.95Y-87.65
X94.0Y-126.945
X94.0Y-129.445
X188.5Y-99.15
X188.5Y-101.69
X188.5Y-104.23
T4
X91.677Y-115.377
X91.677Y-120.377
X94.45Y-99.225
X94.45Y-101.765
X96.677Y-115.377
X96.677Y-120.377
X188.85Y-90.16
X188.85Y-92.7
T5
X89.128Y-81.342
X89.168Y-77.692
X91.668Y-81.342
X91.708Y-77.692
X94.208Y-81.342
X94.248Y-77.692
T6
X88.06Y-39.12
X88.06Y-44.2
X90.6Y-39.12
X90.6Y-44.2
X93.14Y-39.12
X93.14Y-44.2
X95.68Y-39.12
X95.68Y-44.2
X98.22Y-39.12
X98.22Y-44.2
X100.76Y-39.12
X100.76Y-44.2
X103.3Y-39.12
X103.3Y-44.2
X105.84Y-39.12
X105.84Y-44.2
X108.38Y-39.12
X108.38Y-44.2
X110.92Y-39.12
X110.92Y-44.2
X113.46Y-39.12
X113.46Y-44.2
X116.0Y-39.12
X116.0Y-44.2
X118.54Y-39.12
X118.54Y-44.2
X121.08Y-39.12
X121.08Y-44.2
X123.62Y-39.12
X123.62Y-44.2
X126.16Y-39.12
X126.16Y-44.2
X128.7Y-39.12
X128.7Y-44.2
X131.24Y-39.12
X131.24Y-44.2
X133.78Y-39.12
X133.78Y-44.2
X136.32Y-39.12
X136.32Y-44.2
X138.86Y-39.12
X138.86Y-44.2
X141.4Y-39.12
X141.4Y-44.2
X143.94Y-39.12
X143.94Y-44.2
X146.48Y-39.12
X146.48Y-44.2
X149.02Y-39.12
X149.02Y-44.2
X151.56Y-39.12
X151.56Y-44.2
X154.1Y-39.12
X154.1Y-44.2
X156.64Y-39.12
X156.64Y-44.2
X159.18Y-39.12
X159.18Y-44.2
X161.72Y-39.12
X161.72Y-44.2
X164.26Y-39.12
X164.26Y-44.2
X166.8Y-39.12
X166.8Y-44.2
X169.34Y-39.12
X169.34Y-44.2
X171.88Y-39.12
X171.88Y-44.2
X174.42Y-39.12
X174.42Y-44.2
X176.96Y-39.12
X176.96Y-44.2
X179.5Y-39.12
X179.5Y-44.2
X182.04Y-39.12
X182.04Y-44.2
X184.58Y-39.12
X184.58Y-44.2
X187.12Y-39.12
X187.12Y-44.2
X189.66Y-39.12
X189.66Y-44.2
X192.2Y-39.12
X192.2Y-44.2
X194.74Y-39.12
X194.74Y-44.2
T7
X185.958Y-126.442
X188.458Y-126.442
X190.958Y-126.442
T8
X184.058Y-119.442
X192.858Y-119.442
M30
