%TF.GenerationSoftware,KiCad,Pcbnew,9.0.4*%
%TF.CreationDate,2025-10-05T19:10:15+02:00*%
%TF.ProjectId,DeMoN_2.0_PLCC,44654d6f-4e5f-4322-9e30-5f504c43432e,rev?*%
%TF.SameCoordinates,Original*%
%TF.FileFunction,Soldermask,Bot*%
%TF.FilePolarity,Negative*%
%FSLAX46Y46*%
G04 Gerber Fmt 4.6, Leading zero omitted, Abs format (unit mm)*
G04 Created by KiCad (PCBNEW 9.0.4) date 2025-10-05 19:10:15*
%MOMM*%
%LPD*%
G01*
G04 APERTURE LIST*
%ADD10R,1.500000X1.500000*%
%ADD11C,1.600000*%
%ADD12R,1.600000X1.600000*%
%ADD13R,1.800000X1.800000*%
%ADD14C,1.800000*%
%ADD15R,1.700000X1.700000*%
%ADD16O,1.700000X1.700000*%
%ADD17C,1.635000*%
%ADD18C,4.575000*%
%ADD19C,0.325000*%
G04 APERTURE END LIST*
D10*
%TO.C,SW2*%
X188500000Y-101690000D03*
D11*
X188500000Y-104230000D03*
X188500000Y-99150000D03*
%TD*%
D12*
%TO.C,C1*%
X94000000Y-126944888D03*
D11*
X94000000Y-129444888D03*
%TD*%
D13*
%TO.C,D3*%
X94450000Y-99225000D03*
D14*
X94450000Y-101765000D03*
%TD*%
D15*
%TO.C,JP2*%
X89128400Y-81342200D03*
D16*
X91668400Y-81342200D03*
X94208400Y-81342200D03*
%TD*%
D13*
%TO.C,SW1*%
X91677500Y-115377500D03*
D14*
X96677500Y-115377500D03*
X91677500Y-120377500D03*
X96677500Y-120377500D03*
%TD*%
D17*
%TO.C,CN1*%
X88060000Y-44200000D03*
X88060000Y-39120000D03*
X90600000Y-44200000D03*
X90600000Y-39120000D03*
X93140000Y-44200000D03*
X93140000Y-39120000D03*
X95680000Y-44200000D03*
X95680000Y-39120000D03*
X98220000Y-44200000D03*
X98220000Y-39120000D03*
X100760000Y-44200000D03*
X100760000Y-39120000D03*
X103300000Y-44200000D03*
X103300000Y-39120000D03*
X105840000Y-44200000D03*
X105840000Y-39120000D03*
X108380000Y-44200000D03*
X108380000Y-39120000D03*
X110920000Y-44200000D03*
X110920000Y-39120000D03*
X113460000Y-44200000D03*
X113460000Y-39120000D03*
X116000000Y-44200000D03*
X116000000Y-39120000D03*
X118540000Y-44200000D03*
X118540000Y-39120000D03*
X121080000Y-44200000D03*
X121080000Y-39120000D03*
X123620000Y-44200000D03*
X123620000Y-39120000D03*
X126160000Y-44200000D03*
X126160000Y-39120000D03*
X128700000Y-44200000D03*
X128700000Y-39120000D03*
X131240000Y-44200000D03*
X131240000Y-39120000D03*
X133780000Y-44200000D03*
X133780000Y-39120000D03*
X136320000Y-44200000D03*
X136320000Y-39120000D03*
X138860000Y-44200000D03*
X138860000Y-39120000D03*
X141400000Y-44200000D03*
X141400000Y-39120000D03*
X143940000Y-44200000D03*
X143940000Y-39120000D03*
X146480000Y-44200000D03*
X146480000Y-39120000D03*
X149020000Y-44200000D03*
X149020000Y-39120000D03*
X151560000Y-44200000D03*
X151560000Y-39120000D03*
X154100000Y-44200000D03*
X154100000Y-39120000D03*
X156640000Y-44200000D03*
X156640000Y-39120000D03*
X159180000Y-44200000D03*
X159180000Y-39120000D03*
X161720000Y-44200000D03*
X161720000Y-39120000D03*
X164260000Y-44200000D03*
X164260000Y-39120000D03*
X166800000Y-44200000D03*
X166800000Y-39120000D03*
X169340000Y-44200000D03*
X169340000Y-39120000D03*
X171880000Y-44200000D03*
X171880000Y-39120000D03*
X174420000Y-44200000D03*
X174420000Y-39120000D03*
X176960000Y-44200000D03*
X176960000Y-39120000D03*
X179500000Y-44200000D03*
X179500000Y-39120000D03*
X182040000Y-44200000D03*
X182040000Y-39120000D03*
X184580000Y-44200000D03*
X184580000Y-39120000D03*
X187120000Y-44200000D03*
X187120000Y-39120000D03*
X189660000Y-44200000D03*
X189660000Y-39120000D03*
X192200000Y-44200000D03*
X192200000Y-39120000D03*
X194740000Y-44200000D03*
X194740000Y-39120000D03*
%TD*%
D12*
%TO.C,C2*%
X89950000Y-87650000D03*
D11*
X87450000Y-87650000D03*
%TD*%
D13*
%TO.C,D2*%
X188850000Y-92700000D03*
D14*
X188850000Y-90160000D03*
%TD*%
%TO.C,VR1*%
X185958400Y-126442200D03*
X188458400Y-126442200D03*
X190958400Y-126442200D03*
D18*
X184058400Y-119442200D03*
X192858400Y-119442200D03*
%TD*%
D15*
%TO.C,JP1*%
X89168400Y-77692200D03*
D16*
X91708400Y-77692200D03*
X94248400Y-77692200D03*
%TD*%
D19*
%TO.C,J1*%
X203397000Y-85777200D03*
X203397000Y-79997200D03*
%TD*%
M02*
