%TF.GenerationSoftware,KiCad,Pcbnew,9.0.1-9.0.1-0~ubuntu22.04.1*%
%TF.CreationDate,2025-10-29T18:08:32+00:00*%
%TF.ProjectId,DeMoN_2.0_PLCC,44654d6f-4e5f-4322-9e30-5f504c43432e,rev?*%
%TF.SameCoordinates,Original*%
%TF.FileFunction,Profile,NP*%
%FSLAX46Y46*%
G04 Gerber Fmt 4.6, Leading zero omitted, Abs format (unit mm)*
G04 Created by KiCad (PCBNEW 9.0.1-9.0.1-0~ubuntu22.04.1) date 2025-10-29 18:08:32*
%MOMM*%
%LPD*%
G01*
G04 APERTURE LIST*
%TA.AperFunction,Profile*%
%ADD10C,0.050000*%
%TD*%
G04 APERTURE END LIST*
D10*
X93900000Y-61900000D02*
G75*
G02*
X95400000Y-63400000I0J-1500000D01*
G01*
X207848400Y-89252200D02*
X207848400Y-76802200D01*
X206785900Y-90252200D02*
X207848400Y-89252200D01*
X84400000Y-36900000D02*
X84400000Y-61900000D01*
X84400000Y-61900000D02*
X93900000Y-61900000D01*
X203098400Y-90252200D02*
X206785900Y-90252200D01*
X198400000Y-36900000D02*
X198400000Y-61900000D01*
X188900000Y-64900000D02*
G75*
G02*
X187400000Y-63400000I0J1500000D01*
G01*
X198398247Y-72900473D02*
X203098400Y-75302200D01*
X93900000Y-64900000D02*
X84400000Y-64900000D01*
X203098400Y-75302200D02*
X206348400Y-75302200D01*
X188900000Y-61900000D02*
X198400000Y-61900000D01*
X198396800Y-92604400D02*
X198398400Y-132900000D01*
X95400000Y-63400000D02*
G75*
G02*
X93900000Y-64900000I-1500000J0D01*
G01*
X198398400Y-92602200D02*
X203098400Y-90252200D01*
X84400000Y-132900000D02*
X198398400Y-132900000D01*
X187400000Y-63400000D02*
G75*
G02*
X188900000Y-61900000I1500000J0D01*
G01*
X84400000Y-36900000D02*
X198400000Y-36900000D01*
X84400000Y-64900000D02*
X84400000Y-132900000D01*
X198398400Y-64900000D02*
X188900000Y-64900000D01*
X198398400Y-64900000D02*
X198398247Y-72900473D01*
X207848400Y-76802200D02*
X206348400Y-75302200D01*
M02*
