%TF.GenerationSoftware,KiCad,Pcbnew,9.0.1-9.0.1-0~ubuntu22.04.1*%
%TF.CreationDate,2025-10-29T18:08:32+00:00*%
%TF.ProjectId,DeMoN_2.0_PLCC,44654d6f-4e5f-4322-9e30-5f504c43432e,rev?*%
%TF.SameCoordinates,Original*%
%TF.FileFunction,Paste,Top*%
%TF.FilePolarity,Positive*%
%FSLAX46Y46*%
G04 Gerber Fmt 4.6, Leading zero omitted, Abs format (unit mm)*
G04 Created by KiCad (PCBNEW 9.0.1-9.0.1-0~ubuntu22.04.1) date 2025-10-29 18:08:32*
%MOMM*%
%LPD*%
G01*
G04 APERTURE LIST*
G04 Aperture macros list*
%AMRoundRect*
0 Rectangle with rounded corners*
0 $1 Rounding radius*
0 $2 $3 $4 $5 $6 $7 $8 $9 X,Y pos of 4 corners*
0 Add a 4 corners polygon primitive as box body*
4,1,4,$2,$3,$4,$5,$6,$7,$8,$9,$2,$3,0*
0 Add four circle primitives for the rounded corners*
1,1,$1+$1,$2,$3*
1,1,$1+$1,$4,$5*
1,1,$1+$1,$6,$7*
1,1,$1+$1,$8,$9*
0 Add four rect primitives between the rounded corners*
20,1,$1+$1,$2,$3,$4,$5,0*
20,1,$1+$1,$4,$5,$6,$7,0*
20,1,$1+$1,$6,$7,$8,$9,0*
20,1,$1+$1,$8,$9,$2,$3,0*%
G04 Aperture macros list end*
%ADD10RoundRect,0.250000X0.412500X0.650000X-0.412500X0.650000X-0.412500X-0.650000X0.412500X-0.650000X0*%
%ADD11RoundRect,0.250000X-0.412500X-0.650000X0.412500X-0.650000X0.412500X0.650000X-0.412500X0.650000X0*%
%ADD12RoundRect,0.250000X-0.400000X-0.625000X0.400000X-0.625000X0.400000X0.625000X-0.400000X0.625000X0*%
%ADD13R,0.700000X1.925000*%
%ADD14R,1.925000X0.700000*%
%ADD15R,1.981000X0.457000*%
%ADD16RoundRect,0.250000X-0.625000X0.400000X-0.625000X-0.400000X0.625000X-0.400000X0.625000X0.400000X0*%
%ADD17RoundRect,0.250000X-0.650000X0.412500X-0.650000X-0.412500X0.650000X-0.412500X0.650000X0.412500X0*%
%ADD18RoundRect,0.150000X-0.150000X-0.587500X0.150000X-0.587500X0.150000X0.587500X-0.150000X0.587500X0*%
%ADD19RoundRect,0.150000X-0.587500X-0.150000X0.587500X-0.150000X0.587500X0.150000X-0.587500X0.150000X0*%
%ADD20R,1.200000X0.400000*%
%ADD21RoundRect,0.150000X-0.825000X-0.150000X0.825000X-0.150000X0.825000X0.150000X-0.825000X0.150000X0*%
%ADD22RoundRect,0.250001X0.624999X-0.462499X0.624999X0.462499X-0.624999X0.462499X-0.624999X-0.462499X0*%
%ADD23R,1.150000X0.300000*%
%ADD24R,2.000000X2.180000*%
%ADD25RoundRect,0.250000X0.400000X0.625000X-0.400000X0.625000X-0.400000X-0.625000X0.400000X-0.625000X0*%
G04 APERTURE END LIST*
D10*
%TO.C,C17*%
X165023400Y-74402200D03*
X161898400Y-74402200D03*
%TD*%
D11*
%TO.C,C6*%
X112665900Y-99722200D03*
X115790900Y-99722200D03*
%TD*%
%TO.C,C4*%
X179935900Y-74402200D03*
X183060900Y-74402200D03*
%TD*%
%TO.C,C5*%
X179935900Y-80402200D03*
X183060900Y-80402200D03*
%TD*%
D12*
%TO.C,R10*%
X179948400Y-83902200D03*
X183048400Y-83902200D03*
%TD*%
D13*
%TO.C,U1*%
X141498400Y-62689700D03*
X140228400Y-62689700D03*
X138958400Y-62689700D03*
X137688400Y-62689700D03*
X136418400Y-62689700D03*
X135148400Y-62689700D03*
X133878400Y-62689700D03*
X132608400Y-62689700D03*
X131338400Y-62689700D03*
X130068400Y-62689700D03*
X128798400Y-62689700D03*
D14*
X127285900Y-64202200D03*
X127285900Y-65472200D03*
X127285900Y-66742200D03*
X127285900Y-68012200D03*
X127285900Y-69282200D03*
X127285900Y-70552200D03*
X127285900Y-71822200D03*
X127285900Y-73092200D03*
X127285900Y-74362200D03*
X127285900Y-75632200D03*
X127285900Y-76902200D03*
X127285900Y-78172200D03*
X127285900Y-79442200D03*
X127285900Y-80712200D03*
X127285900Y-81982200D03*
X127285900Y-83252200D03*
X127285900Y-84522200D03*
X127285900Y-85792200D03*
X127285900Y-87062200D03*
X127285900Y-88332200D03*
X127285900Y-89602200D03*
D13*
X128798400Y-91114700D03*
X130068400Y-91114700D03*
X131338400Y-91114700D03*
X132608400Y-91114700D03*
X133878400Y-91114700D03*
X135148400Y-91114700D03*
X136418400Y-91114700D03*
X137688400Y-91114700D03*
X138958400Y-91114700D03*
X140228400Y-91114700D03*
X141498400Y-91114700D03*
X142768400Y-91114700D03*
X144038400Y-91114700D03*
X145308400Y-91114700D03*
X146578400Y-91114700D03*
X147848400Y-91114700D03*
X149118400Y-91114700D03*
X150388400Y-91114700D03*
X151658400Y-91114700D03*
X152928400Y-91114700D03*
X154198400Y-91114700D03*
D14*
X155710900Y-89602200D03*
X155710900Y-88332200D03*
X155710900Y-87062200D03*
X155710900Y-85792200D03*
X155710900Y-84522200D03*
X155710900Y-83252200D03*
X155710900Y-81982200D03*
X155710900Y-80712200D03*
X155710900Y-79442200D03*
X155710900Y-78172200D03*
X155710900Y-76902200D03*
X155710900Y-75632200D03*
X155710900Y-74362200D03*
X155710900Y-73092200D03*
X155710900Y-71822200D03*
X155710900Y-70552200D03*
X155710900Y-69282200D03*
X155710900Y-68012200D03*
X155710900Y-66742200D03*
X155710900Y-65472200D03*
X155710900Y-64202200D03*
D13*
X154198400Y-62689700D03*
X152928400Y-62689700D03*
X151658400Y-62689700D03*
X150388400Y-62689700D03*
X149118400Y-62689700D03*
X147848400Y-62689700D03*
X146578400Y-62689700D03*
X145308400Y-62689700D03*
X144038400Y-62689700D03*
X142768400Y-62689700D03*
%TD*%
D12*
%TO.C,R8*%
X179948400Y-77402200D03*
X183048400Y-77402200D03*
%TD*%
D15*
%TO.C,U4*%
X144944400Y-102475000D03*
X144944400Y-103745000D03*
X144944400Y-105015000D03*
X144944400Y-106285000D03*
X144944400Y-107555000D03*
X144944400Y-108825000D03*
X144944400Y-110095000D03*
X144944400Y-111365000D03*
X144944400Y-112635000D03*
X144944400Y-113905000D03*
X144944400Y-115175000D03*
X144944400Y-116445000D03*
X144944400Y-117715000D03*
X144944400Y-118985000D03*
X144944400Y-120255000D03*
X144944400Y-121525000D03*
X158172400Y-121525000D03*
X158172400Y-120255000D03*
X158172400Y-118985000D03*
X158172400Y-117715000D03*
X158172400Y-116445000D03*
X158172400Y-115175000D03*
X158172400Y-113905000D03*
X158172400Y-112635000D03*
X158172400Y-111365000D03*
X158172400Y-110095000D03*
X158172400Y-108825000D03*
X158172400Y-107555000D03*
X158172400Y-106285000D03*
X158172400Y-105015000D03*
X158172400Y-103745000D03*
X158172400Y-102475000D03*
%TD*%
D16*
%TO.C,R5*%
X183300000Y-89750000D03*
X183300000Y-92850000D03*
%TD*%
D17*
%TO.C,C12*%
X102400000Y-111587500D03*
X102400000Y-114712500D03*
%TD*%
D12*
%TO.C,R12*%
X179948400Y-67902200D03*
X183048400Y-67902200D03*
%TD*%
D10*
%TO.C,C9*%
X172670900Y-100000000D03*
X169545900Y-100000000D03*
%TD*%
D11*
%TO.C,C15*%
X118335900Y-65502200D03*
X121460900Y-65502200D03*
%TD*%
D16*
%TO.C,R11*%
X154050000Y-51700000D03*
X154050000Y-54800000D03*
%TD*%
D10*
%TO.C,C3*%
X174060900Y-67902200D03*
X170935900Y-67902200D03*
%TD*%
D12*
%TO.C,R7*%
X179948400Y-71402200D03*
X183048400Y-71402200D03*
%TD*%
D18*
%TO.C,U3*%
X171108400Y-104679700D03*
X169838400Y-104679700D03*
X168568400Y-104679700D03*
X167298400Y-104679700D03*
D19*
X165545900Y-106437200D03*
X165545900Y-107707200D03*
X165545900Y-108977200D03*
X165545900Y-110247200D03*
X165545900Y-111517200D03*
X165545900Y-112787200D03*
X165545900Y-114057200D03*
X165545900Y-115327200D03*
X165545900Y-116597200D03*
D18*
X167298400Y-118354700D03*
X168568400Y-118354700D03*
X169838400Y-118354700D03*
X171108400Y-118354700D03*
X172378400Y-118354700D03*
X173648400Y-118354700D03*
X174918400Y-118354700D03*
D19*
X176670900Y-116597200D03*
X176670900Y-115327200D03*
X176670900Y-114057200D03*
X176670900Y-112787200D03*
X176670900Y-111517200D03*
X176670900Y-110247200D03*
X176670900Y-108977200D03*
X176670900Y-107707200D03*
X176670900Y-106437200D03*
D18*
X174918400Y-104679700D03*
X173648400Y-104679700D03*
X172378400Y-104679700D03*
%TD*%
D16*
%TO.C,R4*%
X91950000Y-92300000D03*
X91950000Y-95400000D03*
%TD*%
D20*
%TO.C,U7*%
X169898400Y-73409700D03*
X169898400Y-74044700D03*
X169898400Y-74679700D03*
X169898400Y-75314700D03*
X169898400Y-75949700D03*
X169898400Y-76584700D03*
X169898400Y-77219700D03*
X169898400Y-77854700D03*
X169898400Y-78489700D03*
X169898400Y-79124700D03*
X169898400Y-79759700D03*
X169898400Y-80394700D03*
X175098400Y-80394700D03*
X175098400Y-79759700D03*
X175098400Y-79124700D03*
X175098400Y-78489700D03*
X175098400Y-77854700D03*
X175098400Y-77219700D03*
X175098400Y-76584700D03*
X175098400Y-75949700D03*
X175098400Y-75314700D03*
X175098400Y-74679700D03*
X175098400Y-74044700D03*
X175098400Y-73409700D03*
%TD*%
D10*
%TO.C,C7*%
X134560900Y-100000000D03*
X131435900Y-100000000D03*
%TD*%
%TO.C,C13*%
X143060900Y-55152200D03*
X139935900Y-55152200D03*
%TD*%
D15*
%TO.C,U6*%
X107594400Y-102475000D03*
X107594400Y-103745000D03*
X107594400Y-105015000D03*
X107594400Y-106285000D03*
X107594400Y-107555000D03*
X107594400Y-108825000D03*
X107594400Y-110095000D03*
X107594400Y-111365000D03*
X107594400Y-112635000D03*
X107594400Y-113905000D03*
X107594400Y-115175000D03*
X107594400Y-116445000D03*
X107594400Y-117715000D03*
X107594400Y-118985000D03*
X107594400Y-120255000D03*
X107594400Y-121525000D03*
X120822400Y-121525000D03*
X120822400Y-120255000D03*
X120822400Y-118985000D03*
X120822400Y-117715000D03*
X120822400Y-116445000D03*
X120822400Y-115175000D03*
X120822400Y-113905000D03*
X120822400Y-112635000D03*
X120822400Y-111365000D03*
X120822400Y-110095000D03*
X120822400Y-108825000D03*
X120822400Y-107555000D03*
X120822400Y-106285000D03*
X120822400Y-105015000D03*
X120822400Y-103745000D03*
X120822400Y-102475000D03*
%TD*%
D17*
%TO.C,C11*%
X183200000Y-106137500D03*
X183200000Y-109262500D03*
%TD*%
D18*
%TO.C,U5*%
X132933400Y-104629700D03*
X131663400Y-104629700D03*
X130393400Y-104629700D03*
X129123400Y-104629700D03*
D19*
X127370900Y-106387200D03*
X127370900Y-107657200D03*
X127370900Y-108927200D03*
X127370900Y-110197200D03*
X127370900Y-111467200D03*
X127370900Y-112737200D03*
X127370900Y-114007200D03*
X127370900Y-115277200D03*
X127370900Y-116547200D03*
D18*
X129123400Y-118304700D03*
X130393400Y-118304700D03*
X131663400Y-118304700D03*
X132933400Y-118304700D03*
X134203400Y-118304700D03*
X135473400Y-118304700D03*
X136743400Y-118304700D03*
D19*
X138495900Y-116547200D03*
X138495900Y-115277200D03*
X138495900Y-114007200D03*
X138495900Y-112737200D03*
X138495900Y-111467200D03*
X138495900Y-110197200D03*
X138495900Y-108927200D03*
X138495900Y-107657200D03*
X138495900Y-106387200D03*
D18*
X136743400Y-104629700D03*
X135473400Y-104629700D03*
X134203400Y-104629700D03*
%TD*%
D21*
%TO.C,U2*%
X91525000Y-104645000D03*
X91525000Y-105915000D03*
X91525000Y-107185000D03*
X91525000Y-108455000D03*
X96475000Y-108455000D03*
X96475000Y-107185000D03*
X96475000Y-105915000D03*
X96475000Y-104645000D03*
%TD*%
D16*
%TO.C,R9*%
X88100000Y-92300000D03*
X88100000Y-95400000D03*
%TD*%
D22*
%TO.C,D1*%
X99700000Y-95337500D03*
X99700000Y-92362500D03*
%TD*%
D10*
%TO.C,C16*%
X165023400Y-91102200D03*
X161898400Y-91102200D03*
%TD*%
D16*
%TO.C,R6*%
X183200000Y-99100000D03*
X183200000Y-102200000D03*
%TD*%
D10*
%TO.C,C8*%
X153050900Y-99722200D03*
X149925900Y-99722200D03*
%TD*%
D11*
%TO.C,C14*%
X118235900Y-81972200D03*
X121360900Y-81972200D03*
%TD*%
D16*
%TO.C,R13*%
X150150000Y-51700000D03*
X150150000Y-54800000D03*
%TD*%
D10*
%TO.C,C10*%
X90712500Y-48600000D03*
X87587500Y-48600000D03*
%TD*%
D23*
%TO.C,J1*%
X202322000Y-86237200D03*
X202322000Y-85937200D03*
X202322000Y-85437200D03*
X202322000Y-85137200D03*
X202322000Y-84137200D03*
X202322000Y-83137200D03*
X202322000Y-82637200D03*
X202322000Y-81637200D03*
X202322000Y-80637200D03*
X202322000Y-80337200D03*
X202322000Y-79837200D03*
X202322000Y-79537200D03*
X202322000Y-81137200D03*
X202322000Y-82137200D03*
X202322000Y-83637200D03*
X202322000Y-84637200D03*
D24*
X206500000Y-87997200D03*
X206500000Y-77777200D03*
X202897000Y-87997200D03*
X202897000Y-77777200D03*
%TD*%
D16*
%TO.C,R1*%
X95750000Y-92300000D03*
X95750000Y-95400000D03*
%TD*%
D25*
%TO.C,R3*%
X92178400Y-72902200D03*
X89078400Y-72902200D03*
%TD*%
%TO.C,R2*%
X92178400Y-68902200D03*
X89078400Y-68902200D03*
%TD*%
M02*
